M48
; DRILL file {KiCad 9.0.0} date 2025-04-09T21:53:39+0200
; FORMAT={-:-/ absolute / metric / decimal}
; #@! TF.CreationDate,2025-04-09T21:53:39+02:00
; #@! TF.GenerationSoftware,Kicad,Pcbnew,9.0.0
; #@! TF.FileFunction,Plated,1,2,PTH
FMAT,2
METRIC
; #@! TA.AperFunction,Plated,PTH,ComponentDrill
T1C0.200
; #@! TA.AperFunction,Plated,PTH,ViaDrill
T2C0.300
; #@! TA.AperFunction,Plated,PTH,ComponentDrill
T3C0.600
; #@! TA.AperFunction,Plated,PTH,ComponentDrill
T4C0.750
; #@! TA.AperFunction,Plated,PTH,ComponentDrill
T5C0.900
; #@! TA.AperFunction,Plated,PTH,ComponentDrill
T6C1.000
; #@! TA.AperFunction,Plated,PTH,ComponentDrill
T7C1.500
%
G90
G05
T1
X210.099Y-117.635
X210.099Y-119.135
X210.099Y-120.635
X211.349Y-66.785
X211.349Y-68.285
X211.349Y-69.785
X211.599Y-117.635
X211.599Y-119.135
X211.599Y-120.635
X212.849Y-66.785
X212.849Y-68.285
X212.849Y-69.785
T2
X204.95Y-92.135
X205.408Y-115.735
X205.95Y-101.635
X206.45Y-121.235
X206.45Y-122.235
X206.95Y-104.135
X208.195Y-67.96
X209.421Y-71.664
X211.59Y-71.995
X212.95Y-110.135
X213.45Y-112.735
X213.95Y-107.135
X214.95Y-72.635
X216.452Y-75.635
X216.642Y-88.484
X217.102Y-78.135
X217.142Y-83.915
X217.142Y-89.915
X217.45Y-92.096
X217.45Y-94.687
X217.45Y-94.687
X217.45Y-94.687
X217.45Y-94.687
X218.45Y-79.135
X218.697Y-94.335
X218.95Y-96.025
X220.45Y-99.135
X220.876Y-97.265
X221.893Y-90.164
X222.4Y-105.353
X227.45Y-104.135
X227.95Y-92.096
X229.45Y-106.135
X230.45Y-106.135
X230.95Y-97.635
X236.45Y-79.135
X236.45Y-88.635
X236.45Y-117.135
X236.45Y-117.135
X236.45Y-117.135
X242.95Y-73.635
X242.95Y-73.635
X245.45Y-83.135
X248.257Y-85.635
X250.45Y-107.135
X250.95Y-71.635
X252.45Y-107.135
X254.45Y-76.135
X256.95Y-76.135
T4
X254.355Y-58.75
X254.355Y-60.75
T5
X240.855Y-58.75
X242.855Y-58.75
X244.855Y-58.75
T6
X208.91Y-75.055
X208.91Y-77.595
X208.91Y-80.135
X208.91Y-82.675
X208.91Y-85.215
X208.91Y-87.755
X208.91Y-90.295
X208.91Y-92.835
X208.91Y-95.375
X208.91Y-97.915
X208.91Y-100.455
X208.91Y-102.995
X208.91Y-105.535
X208.91Y-108.075
X208.91Y-110.615
X208.91Y-113.155
X211.45Y-75.055
X211.45Y-77.595
X211.45Y-80.135
X211.45Y-82.675
X211.45Y-85.215
X211.45Y-87.755
X211.45Y-90.295
X211.45Y-92.835
X211.45Y-95.375
X211.45Y-97.915
X211.45Y-100.455
X211.45Y-102.995
X211.45Y-105.535
X211.45Y-108.075
X211.45Y-110.615
X211.45Y-113.155
T7
X238.755Y-58.75
X246.955Y-58.75
T3
G00X254.242Y-115.56
M15
G01X255.142Y-115.56
M16
G05
G00X254.242Y-124.21
M15
G01X255.142Y-124.21
M16
G05
G00X258.592Y-115.56
M15
G01X259.192Y-115.56
M16
G05
G00X258.592Y-124.21
M15
G01X259.192Y-124.21
M16
G05
M30
