%TF.GenerationSoftware,KiCad,Pcbnew,9.0.0*%
%TF.CreationDate,2025-04-09T21:52:16+02:00*%
%TF.ProjectId,Design-2,44657369-676e-42d3-922e-6b696361645f,v2.0*%
%TF.SameCoordinates,Original*%
%TF.FileFunction,Soldermask,Bot*%
%TF.FilePolarity,Negative*%
%FSLAX46Y46*%
G04 Gerber Fmt 4.6, Leading zero omitted, Abs format (unit mm)*
G04 Created by KiCad (PCBNEW 9.0.0) date 2025-04-09 21:52:16*
%MOMM*%
%LPD*%
G01*
G04 APERTURE LIST*
G04 Aperture macros list*
%AMRoundRect*
0 Rectangle with rounded corners*
0 $1 Rounding radius*
0 $2 $3 $4 $5 $6 $7 $8 $9 X,Y pos of 4 corners*
0 Add a 4 corners polygon primitive as box body*
4,1,4,$2,$3,$4,$5,$6,$7,$8,$9,$2,$3,0*
0 Add four circle primitives for the rounded corners*
1,1,$1+$1,$2,$3*
1,1,$1+$1,$4,$5*
1,1,$1+$1,$6,$7*
1,1,$1+$1,$8,$9*
0 Add four rect primitives between the rounded corners*
20,1,$1+$1,$2,$3,$4,$5,0*
20,1,$1+$1,$4,$5,$6,$7,0*
20,1,$1+$1,$6,$7,$8,$9,0*
20,1,$1+$1,$8,$9,$2,$3,0*%
G04 Aperture macros list end*
%ADD10O,1.700000X1.700000*%
%ADD11R,1.700000X1.700000*%
%ADD12RoundRect,0.250000X0.625000X-0.350000X0.625000X0.350000X-0.625000X0.350000X-0.625000X-0.350000X0*%
%ADD13O,1.750000X1.200000*%
%ADD14O,2.200000X3.500000*%
%ADD15R,1.500000X2.500000*%
%ADD16O,1.500000X2.500000*%
%ADD17C,0.700000*%
%ADD18O,2.000000X1.100000*%
%ADD19O,1.800000X1.200000*%
G04 APERTURE END LIST*
D10*
%TO.C,J1*%
X211449739Y-113155261D03*
X208909739Y-113155261D03*
X211449739Y-110615261D03*
X208909739Y-110615261D03*
X211449739Y-108075261D03*
X208909739Y-108075261D03*
X211449739Y-105535261D03*
X208909739Y-105535261D03*
X211449739Y-102995261D03*
X208909739Y-102995261D03*
X211449739Y-100455261D03*
X208909739Y-100455261D03*
X211449739Y-97915261D03*
X208909739Y-97915261D03*
X211449739Y-95375261D03*
X208909739Y-95375261D03*
X211449739Y-92835261D03*
X208909739Y-92835261D03*
X211449739Y-90295261D03*
X208909739Y-90295261D03*
X211449739Y-87755261D03*
X208909739Y-87755261D03*
X211449739Y-85215261D03*
X208909739Y-85215261D03*
X211449739Y-82675261D03*
X208909739Y-82675261D03*
X211449739Y-80135261D03*
X208909739Y-80135261D03*
X211449739Y-77595261D03*
X208909739Y-77595261D03*
X211449739Y-75055261D03*
D11*
X208909739Y-75055261D03*
%TD*%
D12*
%TO.C,J5*%
X254354739Y-60750439D03*
D13*
X254354739Y-58750439D03*
%TD*%
D14*
%TO.C,SW1*%
X246954739Y-58750439D03*
X238754739Y-58750439D03*
D15*
X244854739Y-58750439D03*
D16*
X242854739Y-58750439D03*
X240854739Y-58750439D03*
%TD*%
D17*
%TO.C,USB1*%
X255212339Y-122775361D03*
X255212339Y-116995361D03*
D18*
X254692139Y-124210461D03*
D19*
X258892239Y-124210461D03*
D18*
X254692139Y-115560461D03*
D19*
X258892239Y-115560461D03*
%TD*%
M02*
