%TF.GenerationSoftware,KiCad,Pcbnew,9.0.0*%
%TF.CreationDate,2025-04-09T21:52:16+02:00*%
%TF.ProjectId,Design-2,44657369-676e-42d3-922e-6b696361645f,v2.0*%
%TF.SameCoordinates,Original*%
%TF.FileFunction,Copper,L2,Bot*%
%TF.FilePolarity,Positive*%
%FSLAX46Y46*%
G04 Gerber Fmt 4.6, Leading zero omitted, Abs format (unit mm)*
G04 Created by KiCad (PCBNEW 9.0.0) date 2025-04-09 21:52:16*
%MOMM*%
%LPD*%
G01*
G04 APERTURE LIST*
G04 Aperture macros list*
%AMRoundRect*
0 Rectangle with rounded corners*
0 $1 Rounding radius*
0 $2 $3 $4 $5 $6 $7 $8 $9 X,Y pos of 4 corners*
0 Add a 4 corners polygon primitive as box body*
4,1,4,$2,$3,$4,$5,$6,$7,$8,$9,$2,$3,0*
0 Add four circle primitives for the rounded corners*
1,1,$1+$1,$2,$3*
1,1,$1+$1,$4,$5*
1,1,$1+$1,$6,$7*
1,1,$1+$1,$8,$9*
0 Add four rect primitives between the rounded corners*
20,1,$1+$1,$2,$3,$4,$5,0*
20,1,$1+$1,$4,$5,$6,$7,0*
20,1,$1+$1,$6,$7,$8,$9,0*
20,1,$1+$1,$8,$9,$2,$3,0*%
G04 Aperture macros list end*
%TA.AperFunction,ComponentPad*%
%ADD10O,1.700000X1.700000*%
%TD*%
%TA.AperFunction,ComponentPad*%
%ADD11R,1.700000X1.700000*%
%TD*%
%TA.AperFunction,ComponentPad*%
%ADD12RoundRect,0.250000X0.625000X-0.350000X0.625000X0.350000X-0.625000X0.350000X-0.625000X-0.350000X0*%
%TD*%
%TA.AperFunction,ComponentPad*%
%ADD13O,1.750000X1.200000*%
%TD*%
%TA.AperFunction,HeatsinkPad*%
%ADD14C,0.500000*%
%TD*%
%TA.AperFunction,HeatsinkPad*%
%ADD15R,2.000000X3.500000*%
%TD*%
%TA.AperFunction,ComponentPad*%
%ADD16O,2.200000X3.500000*%
%TD*%
%TA.AperFunction,ComponentPad*%
%ADD17R,1.500000X2.500000*%
%TD*%
%TA.AperFunction,ComponentPad*%
%ADD18O,1.500000X2.500000*%
%TD*%
%TA.AperFunction,ComponentPad*%
%ADD19O,2.000000X1.100000*%
%TD*%
%TA.AperFunction,ComponentPad*%
%ADD20O,1.800000X1.200000*%
%TD*%
%TA.AperFunction,ViaPad*%
%ADD21C,0.600000*%
%TD*%
%TA.AperFunction,Conductor*%
%ADD22C,0.300000*%
%TD*%
%TA.AperFunction,Conductor*%
%ADD23C,0.200000*%
%TD*%
%TA.AperFunction,Conductor*%
%ADD24C,0.800000*%
%TD*%
G04 APERTURE END LIST*
D10*
%TO.P,J1,32,Pin_32*%
%TO.N,/MOTOR1_A_OUT*%
X211449739Y-113155261D03*
%TO.P,J1,31,Pin_31*%
%TO.N,/MOTOR1_B_OUT *%
X208909739Y-113155261D03*
%TO.P,J1,30,Pin_30*%
%TO.N,/MOTOR1_CTRL2*%
X211449739Y-110615261D03*
%TO.P,J1,29,Pin_29*%
%TO.N,/MOTOR3_B_OUT*%
X208909739Y-110615261D03*
%TO.P,J1,28,Pin_28*%
%TO.N,/MOTOR1_CTRL1*%
X211449739Y-108075261D03*
%TO.P,J1,27,Pin_27*%
%TO.N,/MOTOR3_A_OUT*%
X208909739Y-108075261D03*
%TO.P,J1,26,Pin_26*%
%TO.N,/MOTOR3_CTRL2*%
X211449739Y-105535261D03*
%TO.P,J1,25,Pin_25*%
%TO.N,/CTRL_EXT_LOAD1*%
X208909739Y-105535261D03*
%TO.P,J1,24,Pin_24*%
%TO.N,/MOTOR3_CTRL1*%
X211449739Y-102995261D03*
%TO.P,J1,23,Pin_23*%
%TO.N,GND*%
X208909739Y-102995261D03*
%TO.P,J1,22,Pin_22*%
%TO.N,/High Voltage (9V)*%
X211449739Y-100455261D03*
%TO.P,J1,21,Pin_21*%
%TO.N,/EXT_LOAD1_OUT*%
X208909739Y-100455261D03*
%TO.P,J1,20,Pin_20*%
%TO.N,/5V Out*%
X211449739Y-97915261D03*
%TO.P,J1,19,Pin_19*%
%TO.N,GND*%
X208909739Y-97915261D03*
%TO.P,J1,18,Pin_18*%
%TO.N,/3V3 Out *%
X211449739Y-95375261D03*
%TO.P,J1,17,Pin_17*%
%TO.N,unconnected-(J1-Pin_17-Pad17)*%
X208909739Y-95375261D03*
%TO.P,J1,16,Pin_16*%
%TO.N,/I2C1_SCL*%
X211449739Y-92835261D03*
%TO.P,J1,15,Pin_15*%
%TO.N,/I2C1_SDA *%
X208909739Y-92835261D03*
%TO.P,J1,14,Pin_14*%
%TO.N,/BAT+*%
X211449739Y-90295261D03*
%TO.P,J1,13,Pin_13*%
%TO.N,/FAST_CHARGE_CTRL*%
X208909739Y-90295261D03*
%TO.P,J1,12,Pin_12*%
%TO.N,/USART2_TX *%
X211449739Y-87755261D03*
%TO.P,J1,11,Pin_11*%
%TO.N,/EXT_LOAD2_OUT *%
X208909739Y-87755261D03*
%TO.P,J1,10,Pin_10*%
%TO.N,/MOTOR4_CTRL2*%
X211449739Y-85215261D03*
%TO.P,J1,9,Pin_9*%
%TO.N,/USART2_RX*%
X208909739Y-85215261D03*
%TO.P,J1,8,Pin_8*%
%TO.N,/MOTOR4_CTRL1*%
X211449739Y-82675261D03*
%TO.P,J1,7,Pin_7*%
%TO.N,/CTRL_EXT_LOAD2 *%
X208909739Y-82675261D03*
%TO.P,J1,6,Pin_6*%
%TO.N,/MOTOR2_CTRL2*%
X211449739Y-80135261D03*
%TO.P,J1,5,Pin_5*%
%TO.N,/Motor4_B_OUT*%
X208909739Y-80135261D03*
%TO.P,J1,4,Pin_4*%
%TO.N,/MOTOR2_CTRL1*%
X211449739Y-77595261D03*
%TO.P,J1,3,Pin_3*%
%TO.N,/Motor4_A_OUT *%
X208909739Y-77595261D03*
%TO.P,J1,2,Pin_2*%
%TO.N,/Motor2_A_OUT *%
X211449739Y-75055261D03*
D11*
%TO.P,J1,1,Pin_1*%
%TO.N,/Motor2_B_OUT*%
X208909739Y-75055261D03*
%TD*%
D12*
%TO.P,J5,1,Pin_1*%
%TO.N,/BAT-*%
X254354739Y-60750439D03*
D13*
%TO.P,J5,2,Pin_2*%
%TO.N,/BAT+*%
X254354739Y-58750439D03*
%TD*%
D14*
%TO.P,U5,17,GND*%
%TO.N,GND*%
X211598739Y-120635261D03*
X211598739Y-119135261D03*
X211598739Y-117635261D03*
D15*
X210848739Y-119135261D03*
D14*
X210098739Y-120635261D03*
X210098739Y-119135261D03*
X210098739Y-117635261D03*
%TD*%
D16*
%TO.P,SW1,*%
%TO.N,*%
X246954739Y-58750439D03*
X238754739Y-58750439D03*
D17*
%TO.P,SW1,1,A*%
%TO.N,/BAT+*%
X244854739Y-58750439D03*
D18*
%TO.P,SW1,2,B*%
%TO.N,Net-(Q3-S)*%
X242854739Y-58750439D03*
%TO.P,SW1,3,C*%
%TO.N,Net-(SW1-C)*%
X240854739Y-58750439D03*
%TD*%
D14*
%TO.P,U8,17,GND*%
%TO.N,GND*%
X212848739Y-69785261D03*
X212848739Y-68285261D03*
X212848739Y-66785261D03*
D15*
X212098739Y-68285261D03*
D14*
X211348739Y-69785261D03*
X211348739Y-68285261D03*
X211348739Y-66785261D03*
%TD*%
D19*
%TO.P,USB1,13,SHELL*%
%TO.N,unconnected-(USB1-SHELL-Pad13)_1*%
X254692139Y-124210461D03*
D20*
%TO.N,unconnected-(USB1-SHELL-Pad13)*%
X258892239Y-124210461D03*
D19*
%TO.P,USB1,14,SHELL*%
%TO.N,unconnected-(USB1-SHELL-Pad14)_1*%
X254692139Y-115560461D03*
D20*
%TO.N,unconnected-(USB1-SHELL-Pad14)*%
X258892239Y-115560461D03*
%TD*%
D21*
%TO.N,/3V3 Out *%
X227949739Y-92096261D03*
%TO.N,/Motor2_A_OUT *%
X217449739Y-94687261D03*
X217449739Y-94687261D03*
X217449739Y-94687261D03*
X217449739Y-94687261D03*
%TO.N,GND*%
X248257239Y-85635261D03*
X245449739Y-83135261D03*
X216642239Y-88484261D03*
%TO.N,/CTRL_EXT_LOAD2 *%
X217142239Y-83915261D03*
%TO.N,/EXT_LOAD2_OUT *%
X217142239Y-89915261D03*
%TO.N,/3V3 Out *%
X218449739Y-79135261D03*
%TO.N,/MOTOR3_A_OUT*%
X214949739Y-72635261D03*
X204949739Y-92135261D03*
%TO.N,/CTRL_EXT_LOAD1*%
X213949739Y-107135261D03*
%TO.N,/MOTOR3_CTRL2*%
X206949739Y-104135261D03*
%TO.N,/MOTOR3_CTRL1*%
X205949739Y-101635261D03*
%TO.N,GND*%
X220876141Y-97265261D03*
%TO.N,/EXT_LOAD1_OUT*%
X220449739Y-99135261D03*
%TO.N,/FAST_CHARGE_CTRL*%
X218696837Y-94335261D03*
%TO.N,/MOTOR4_CTRL2*%
X209420869Y-71664131D03*
X211590109Y-71994891D03*
%TO.N,/High Voltage (9V)*%
X236449739Y-117135261D03*
X236449739Y-117135261D03*
X236449739Y-117135261D03*
%TO.N,GND*%
X222399739Y-105352761D03*
X252449739Y-107135261D03*
X250449739Y-107135261D03*
X229449739Y-106135261D03*
X221893489Y-90164011D03*
X205407739Y-115735261D03*
%TO.N,/I2C1_SCL*%
X254449739Y-76135261D03*
%TO.N,/3V3 Out *%
X236449739Y-79135261D03*
X250949739Y-71635261D03*
%TO.N,/I2C1_SDA *%
X256949739Y-76135261D03*
%TO.N,/FAST_CHARGE_CTRL*%
X227449739Y-104135261D03*
X230449739Y-106135261D03*
%TO.N,/5V Out*%
X236449739Y-88635261D03*
X230949739Y-97635261D03*
X242949739Y-73635261D03*
X242949739Y-73635261D03*
%TO.N,/BAT+*%
X208195218Y-67960261D03*
%TO.N,/MOTOR2_CTRL2*%
X206449739Y-121235261D03*
%TO.N,/MOTOR2_CTRL1*%
X206449739Y-122235261D03*
%TO.N,/Motor2_A_OUT *%
X217449739Y-92096261D03*
X218949739Y-96025261D03*
%TO.N,/MOTOR1_CTRL1*%
X212949739Y-110135261D03*
%TO.N,/MOTOR1_B_OUT *%
X213449739Y-112735261D03*
%TO.N,/Motor4_A_OUT *%
X216451739Y-75635261D03*
%TO.N,/Motor4_B_OUT*%
X217101739Y-78135261D03*
%TD*%
D22*
%TO.N,/3V3 Out *%
X231949739Y-79135261D02*
X231949739Y-88096261D01*
X231949739Y-88096261D02*
X227949739Y-92096261D01*
X231949739Y-79135261D02*
X218449739Y-79135261D01*
%TO.N,/FAST_CHARGE_CTRL*%
X213057259Y-93636261D02*
X212507259Y-94186261D01*
X215145696Y-93748262D02*
X215033695Y-93636261D01*
X215560740Y-93748262D02*
X215145696Y-93748262D01*
X215975780Y-93748261D02*
X215560740Y-93748262D01*
X212507259Y-94186261D02*
X212092218Y-94186261D01*
X218696837Y-93748261D02*
X215975780Y-93748261D01*
X218696837Y-94335261D02*
X218696837Y-93748261D01*
X215033695Y-93636261D02*
X213057259Y-93636261D01*
%TO.N,/I2C1_SCL*%
X235117586Y-91596588D02*
X235411066Y-91303108D01*
X233760393Y-92953782D02*
X235117586Y-91596588D01*
X233760393Y-92953781D02*
X233760393Y-92953782D01*
X233514326Y-93199848D02*
X233760393Y-92953781D01*
X233466913Y-93247261D02*
X233514326Y-93199848D01*
X233051873Y-93247261D02*
X233466914Y-93247261D01*
X215353219Y-93247261D02*
X215768259Y-93247261D01*
X235411066Y-91303108D02*
X250578913Y-76135261D01*
X215241218Y-93135261D02*
X215353218Y-93247261D01*
X215768259Y-93247261D02*
X233051873Y-93247261D01*
X250578913Y-76135261D02*
X254449739Y-76135261D01*
X211749739Y-93135261D02*
X215241218Y-93135261D01*
X211449739Y-92835261D02*
X211749739Y-93135261D01*
X215353218Y-93247261D02*
X215353219Y-93247261D01*
X233466914Y-93247261D02*
X233466913Y-93247261D01*
%TO.N,/Motor2_A_OUT *%
X218787739Y-96025261D02*
X217449739Y-94687261D01*
X218949739Y-96025261D02*
X218787739Y-96025261D01*
X214948739Y-73476261D02*
X213369739Y-75055261D01*
X217290739Y-73476261D02*
X214948739Y-73476261D01*
X217449739Y-73635261D02*
X217290739Y-73476261D01*
X217752739Y-77865607D02*
X217449739Y-77562607D01*
X217449739Y-77562607D02*
X217449739Y-73635261D01*
X217449739Y-78707915D02*
X217752739Y-78404915D01*
X217449739Y-79596261D02*
X217449739Y-78707915D01*
X219988739Y-82135261D02*
X217449739Y-79596261D01*
X226949739Y-83635261D02*
X225449739Y-82135261D01*
X226949739Y-90635261D02*
X226949739Y-83635261D01*
X225449739Y-82135261D02*
X219988739Y-82135261D01*
X217752739Y-78404915D02*
X217752739Y-77865607D01*
X225449739Y-92135261D02*
X226949739Y-90635261D01*
X217449739Y-92135261D02*
X225449739Y-92135261D01*
X213369739Y-75055261D02*
X211449739Y-75055261D01*
X217449739Y-92096261D02*
X217449739Y-92135261D01*
%TO.N,GND*%
X247949739Y-85635261D02*
X248257239Y-85635261D01*
X245449739Y-83135261D02*
X247949739Y-85635261D01*
%TO.N,/FAST_CHARGE_CTRL*%
X207452739Y-93138261D02*
X207452739Y-91752261D01*
X208488739Y-94174261D02*
X207452739Y-93138261D01*
X212092218Y-94186261D02*
X212080218Y-94174261D01*
X212080218Y-94174261D02*
X208488739Y-94174261D01*
X207452739Y-91752261D02*
X208909739Y-90295261D01*
%TO.N,/I2C1_SDA *%
X208909739Y-92835261D02*
X210109739Y-91635261D01*
%TO.N,/FAST_CHARGE_CTRL*%
X212092218Y-94186261D02*
X212092219Y-94186261D01*
%TO.N,/MOTOR1_B_OUT *%
X212668739Y-111954261D02*
X213449739Y-112735261D01*
X210110739Y-111954261D02*
X212668739Y-111954261D01*
X208909739Y-113155261D02*
X210110739Y-111954261D01*
%TO.N,/MOTOR2_CTRL2*%
X207748739Y-81336261D02*
X210248739Y-81336261D01*
X210248739Y-81336261D02*
X211449739Y-80135261D01*
X204449739Y-101764435D02*
X206951739Y-99262435D01*
X206449739Y-119735261D02*
X204449739Y-117735261D01*
X206951739Y-99262435D02*
X206951739Y-82133261D01*
X206449739Y-121235261D02*
X206449739Y-119735261D01*
X204449739Y-117735261D02*
X204449739Y-101764435D01*
X206951739Y-82133261D02*
X207748739Y-81336261D01*
%TO.N,/MOTOR2_CTRL1*%
X203298739Y-100433569D02*
X203298739Y-119084261D01*
D23*
%TO.N,/CTRL_EXT_LOAD2 *%
X217053239Y-83826261D02*
X217142239Y-83915261D01*
X210060739Y-83826261D02*
X217053239Y-83826261D01*
D22*
%TO.N,/EXT_LOAD2_OUT *%
X213574489Y-87179011D02*
X212949739Y-86554261D01*
X214405989Y-87179011D02*
X213574489Y-87179011D01*
X214405989Y-87179011D02*
X217142239Y-89915261D01*
X210110739Y-86554261D02*
X212949739Y-86554261D01*
X208909739Y-87755261D02*
X210110739Y-86554261D01*
%TO.N,GND*%
X221893489Y-90164011D02*
X218321989Y-90164011D01*
X218321989Y-90164011D02*
X216642239Y-88484261D01*
%TO.N,/High Voltage (9V)*%
X221748739Y-113934261D02*
X224949739Y-117135261D01*
X223949739Y-101135261D02*
X221748739Y-103336261D01*
X221748739Y-103336261D02*
X221748739Y-113934261D01*
%TO.N,/MOTOR3_A_OUT*%
X214939109Y-72645891D02*
X214949739Y-72635261D01*
X208439109Y-72645891D02*
X214939109Y-72645891D01*
X204949739Y-76135261D02*
X208439109Y-72645891D01*
X204949739Y-92135261D02*
X204949739Y-76135261D01*
%TO.N,/CTRL_EXT_LOAD1*%
X210110739Y-106736261D02*
X208909739Y-105535261D01*
X213550739Y-106736261D02*
X210110739Y-106736261D01*
X213550739Y-106736261D02*
X213949739Y-107135261D01*
%TO.N,/MOTOR3_CTRL2*%
X207010739Y-104196261D02*
X210110739Y-104196261D01*
X206949739Y-104135261D02*
X207010739Y-104196261D01*
X210110739Y-104196261D02*
X211449739Y-105535261D01*
%TO.N,/MOTOR3_CTRL1*%
X206108739Y-101794261D02*
X205949739Y-101635261D01*
X210248739Y-101794261D02*
X206108739Y-101794261D01*
X211449739Y-102995261D02*
X210248739Y-101794261D01*
%TO.N,GND*%
X220325141Y-96714261D02*
X220876141Y-97265261D01*
X210110739Y-96714261D02*
X220325141Y-96714261D01*
X208909739Y-97915261D02*
X210110739Y-96714261D01*
X228949739Y-105635261D02*
X229449739Y-106135261D01*
X222682239Y-105635261D02*
X228949739Y-105635261D01*
X222399739Y-105352761D02*
X222682239Y-105635261D01*
%TO.N,/High Voltage (9V)*%
X223269739Y-100455261D02*
X223949739Y-101135261D01*
X211449739Y-100455261D02*
X223269739Y-100455261D01*
%TO.N,/EXT_LOAD1_OUT*%
X210229739Y-99135261D02*
X220449739Y-99135261D01*
X208909739Y-100455261D02*
X210229739Y-99135261D01*
%TO.N,/5V Out*%
X230669739Y-97915261D02*
X230949739Y-97635261D01*
X211449739Y-97915261D02*
X230669739Y-97915261D01*
%TO.N,/I2C1_SDA *%
X233259393Y-92746261D02*
X234910066Y-91095588D01*
X215560739Y-92746261D02*
X233259393Y-92746261D01*
X214449739Y-91635261D02*
X215560739Y-92746261D01*
X234910066Y-91095588D02*
X250521393Y-75484261D01*
X210109739Y-91635261D02*
X214449739Y-91635261D01*
X256298739Y-75484261D02*
X256949739Y-76135261D01*
X250521393Y-75484261D02*
X256298739Y-75484261D01*
%TO.N,/MOTOR4_CTRL2*%
X211259349Y-71664131D02*
X211590109Y-71994891D01*
X209420869Y-71664131D02*
X211259349Y-71664131D01*
D23*
%TO.N,/CTRL_EXT_LOAD2 *%
X208909739Y-82675261D02*
X210060739Y-83826261D01*
D22*
%TO.N,/High Voltage (9V)*%
X224949739Y-117135261D02*
X236449739Y-117135261D01*
%TO.N,GND*%
X250449739Y-107135261D02*
X252449739Y-107135261D01*
X205849739Y-117635261D02*
X210098739Y-117635261D01*
X205407739Y-117193261D02*
X205849739Y-117635261D01*
X205407739Y-115735261D02*
X205407739Y-117193261D01*
D24*
%TO.N,/3V3 Out *%
X236418702Y-78666298D02*
X236418702Y-79104224D01*
D22*
X236449739Y-79135261D02*
X231949739Y-79135261D01*
D24*
X250949739Y-71635261D02*
X243449739Y-71635261D01*
X243449739Y-71635261D02*
X236418702Y-78666298D01*
D22*
%TO.N,/FAST_CHARGE_CTRL*%
X228449739Y-104135261D02*
X227449739Y-104135261D01*
X230449739Y-106135261D02*
X228449739Y-104135261D01*
%TO.N,/5V Out*%
X236449739Y-88635261D02*
X236449739Y-80135261D01*
X236449739Y-80135261D02*
X242949739Y-73635261D01*
%TO.N,/BAT+*%
X210520218Y-65635261D02*
X238949739Y-65635261D01*
X208195218Y-67960261D02*
X210520218Y-65635261D01*
X244854739Y-59730261D02*
X244854739Y-58750439D01*
X238949739Y-65635261D02*
X244854739Y-59730261D01*
%TO.N,/MOTOR2_CTRL1*%
X206450739Y-97281569D02*
X203298739Y-100433569D01*
X211449739Y-77595261D02*
X210248739Y-78796261D01*
X203298739Y-119084261D02*
X206449739Y-122235261D01*
X208550268Y-78796261D02*
X206450739Y-80895790D01*
X206450739Y-80895790D02*
X206450739Y-97281569D01*
X210248739Y-78796261D02*
X208550268Y-78796261D01*
%TO.N,/MOTOR1_CTRL1*%
X212949739Y-110135261D02*
X212949739Y-109575261D01*
X212949739Y-109575261D02*
X211449739Y-108075261D01*
%TO.N,/Motor4_A_OUT *%
X210110739Y-76394261D02*
X215692739Y-76394261D01*
X215692739Y-76394261D02*
X216451739Y-75635261D01*
X208909739Y-77595261D02*
X210110739Y-76394261D01*
%TO.N,/Motor4_B_OUT*%
X211090268Y-78796261D02*
X216440739Y-78796261D01*
X216440739Y-78796261D02*
X217101739Y-78135261D01*
X209751268Y-80135261D02*
X211090268Y-78796261D01*
X208909739Y-80135261D02*
X209751268Y-80135261D01*
%TD*%
%TA.AperFunction,Conductor*%
%TO.N,GND*%
G36*
X210251183Y-96029260D02*
G01*
X210290225Y-96074317D01*
X210294690Y-96083081D01*
X210419629Y-96255047D01*
X210569952Y-96405370D01*
X210741921Y-96530311D01*
X210750685Y-96534777D01*
X210801481Y-96582752D01*
X210818275Y-96650573D01*
X210795737Y-96716708D01*
X210750685Y-96755745D01*
X210741921Y-96760210D01*
X210569952Y-96885151D01*
X210419629Y-97035474D01*
X210294688Y-97207443D01*
X210289941Y-97216760D01*
X210241966Y-97267554D01*
X210174144Y-97284348D01*
X210108010Y-97261809D01*
X210068973Y-97216756D01*
X210064361Y-97207705D01*
X209939466Y-97035801D01*
X209939462Y-97035796D01*
X209789203Y-96885537D01*
X209789198Y-96885533D01*
X209617294Y-96760638D01*
X209608239Y-96756024D01*
X209557445Y-96708049D01*
X209540651Y-96640227D01*
X209563190Y-96574093D01*
X209608247Y-96535054D01*
X209617555Y-96530312D01*
X209696746Y-96472776D01*
X209789525Y-96405370D01*
X209789527Y-96405367D01*
X209789531Y-96405365D01*
X209939843Y-96255053D01*
X209939845Y-96255049D01*
X209939848Y-96255047D01*
X210064787Y-96083081D01*
X210064786Y-96083081D01*
X210064790Y-96083077D01*
X210069253Y-96074315D01*
X210117227Y-96023520D01*
X210185047Y-96006724D01*
X210251183Y-96029260D01*
G37*
%TD.AperFunction*%
%TA.AperFunction,Conductor*%
G36*
X216759710Y-79446661D02*
G01*
X216795379Y-79506740D01*
X216799239Y-79537439D01*
X216799239Y-79660330D01*
X216819217Y-79760762D01*
X216819320Y-79761282D01*
X216819341Y-79761391D01*
X216824189Y-79785761D01*
X216824238Y-79786005D01*
X216837914Y-79819021D01*
X216866511Y-79888062D01*
X216873274Y-79904388D01*
X216944462Y-80010930D01*
X216944465Y-80010934D01*
X219574066Y-82640535D01*
X219677620Y-82709727D01*
X219677619Y-82709727D01*
X219679876Y-82711234D01*
X219680612Y-82711726D01*
X219798995Y-82760762D01*
X219798999Y-82760762D01*
X219799000Y-82760763D01*
X219924667Y-82785761D01*
X219924670Y-82785761D01*
X225128931Y-82785761D01*
X225195970Y-82805446D01*
X225216612Y-82822080D01*
X226262920Y-83868388D01*
X226296405Y-83929711D01*
X226299239Y-83956069D01*
X226299239Y-90314453D01*
X226279554Y-90381492D01*
X226262920Y-90402134D01*
X225216612Y-91448442D01*
X225155289Y-91481927D01*
X225128931Y-91484761D01*
X218013042Y-91484761D01*
X217946003Y-91465076D01*
X217944151Y-91463863D01*
X217828924Y-91386870D01*
X217828911Y-91386863D01*
X217683240Y-91326525D01*
X217683228Y-91326522D01*
X217528584Y-91295761D01*
X217528581Y-91295761D01*
X217370897Y-91295761D01*
X217370894Y-91295761D01*
X217216249Y-91326522D01*
X217216237Y-91326525D01*
X217070566Y-91386863D01*
X217070553Y-91386870D01*
X216939450Y-91474471D01*
X216939446Y-91474474D01*
X216827952Y-91585968D01*
X216827949Y-91585972D01*
X216740348Y-91717075D01*
X216740341Y-91717088D01*
X216680003Y-91862759D01*
X216680000Y-91862769D01*
X216653508Y-91995953D01*
X216621123Y-92057864D01*
X216560407Y-92092438D01*
X216531891Y-92095761D01*
X215881547Y-92095761D01*
X215814508Y-92076076D01*
X215793866Y-92059442D01*
X214864413Y-91129988D01*
X214864412Y-91129987D01*
X214864408Y-91129984D01*
X214757866Y-91058796D01*
X214736459Y-91049929D01*
X214639483Y-91009760D01*
X214639477Y-91009758D01*
X214513810Y-90984761D01*
X214513808Y-90984761D01*
X212816008Y-90984761D01*
X212748969Y-90965076D01*
X212703214Y-90912272D01*
X212693270Y-90843114D01*
X212700051Y-90818392D01*
X212699790Y-90818307D01*
X212709812Y-90787463D01*
X212766985Y-90611504D01*
X212800239Y-90401548D01*
X212800239Y-90188974D01*
X212766985Y-89979018D01*
X212701296Y-89776849D01*
X212604790Y-89587445D01*
X212604788Y-89587442D01*
X212604787Y-89587440D01*
X212479848Y-89415474D01*
X212329525Y-89265151D01*
X212157559Y-89140212D01*
X212156854Y-89139852D01*
X212148793Y-89135746D01*
X212097998Y-89087773D01*
X212081202Y-89019953D01*
X212103738Y-88953817D01*
X212148793Y-88914776D01*
X212157555Y-88910312D01*
X212214761Y-88868750D01*
X212329525Y-88785370D01*
X212329527Y-88785367D01*
X212329531Y-88785365D01*
X212479843Y-88635053D01*
X212479845Y-88635049D01*
X212479848Y-88635047D01*
X212604787Y-88463081D01*
X212604786Y-88463081D01*
X212604790Y-88463077D01*
X212701296Y-88273673D01*
X212766985Y-88071504D01*
X212800239Y-87861548D01*
X212800239Y-87648974D01*
X212798915Y-87640615D01*
X212807869Y-87571323D01*
X212852865Y-87517871D01*
X212919617Y-87497231D01*
X212986930Y-87515956D01*
X213009065Y-87533533D01*
X213159820Y-87684288D01*
X213266362Y-87755476D01*
X213384745Y-87804512D01*
X213384749Y-87804512D01*
X213384750Y-87804513D01*
X213510417Y-87829511D01*
X213510420Y-87829511D01*
X214085181Y-87829511D01*
X214152220Y-87849196D01*
X214172862Y-87865830D01*
X216325223Y-90018191D01*
X216358708Y-90079514D01*
X216359159Y-90081681D01*
X216372500Y-90148750D01*
X216372503Y-90148762D01*
X216432841Y-90294433D01*
X216432848Y-90294446D01*
X216520449Y-90425549D01*
X216520452Y-90425553D01*
X216631946Y-90537047D01*
X216631950Y-90537050D01*
X216763053Y-90624651D01*
X216763066Y-90624658D01*
X216898894Y-90680919D01*
X216908742Y-90684998D01*
X217063392Y-90715760D01*
X217063395Y-90715761D01*
X217063397Y-90715761D01*
X217221083Y-90715761D01*
X217221084Y-90715760D01*
X217375736Y-90684998D01*
X217521418Y-90624655D01*
X217652528Y-90537050D01*
X217764028Y-90425550D01*
X217851633Y-90294440D01*
X217911976Y-90148758D01*
X217942739Y-89994103D01*
X217942739Y-89836419D01*
X217942739Y-89836416D01*
X217942738Y-89836414D01*
X217911977Y-89681771D01*
X217911976Y-89681764D01*
X217897578Y-89647003D01*
X217851636Y-89536088D01*
X217851629Y-89536075D01*
X217764028Y-89404972D01*
X217764025Y-89404968D01*
X217652531Y-89293474D01*
X217652527Y-89293471D01*
X217521424Y-89205870D01*
X217521411Y-89205863D01*
X217375740Y-89145525D01*
X217375728Y-89145522D01*
X217308659Y-89132181D01*
X217246748Y-89099796D01*
X217245169Y-89098245D01*
X214820663Y-86673738D01*
X214820662Y-86673737D01*
X214820658Y-86673734D01*
X214714116Y-86602546D01*
X214708476Y-86600210D01*
X214595733Y-86553510D01*
X214595727Y-86553508D01*
X214470060Y-86528511D01*
X214470058Y-86528511D01*
X213895297Y-86528511D01*
X213828258Y-86508826D01*
X213807616Y-86492192D01*
X213364413Y-86048988D01*
X213364412Y-86048987D01*
X213364408Y-86048984D01*
X213257866Y-85977796D01*
X213257395Y-85977601D01*
X213139483Y-85928760D01*
X213139477Y-85928758D01*
X213013810Y-85903761D01*
X213013808Y-85903761D01*
X212816422Y-85903761D01*
X212749383Y-85884076D01*
X212703628Y-85831272D01*
X212693684Y-85762114D01*
X212700180Y-85738433D01*
X212699790Y-85738307D01*
X212719739Y-85676911D01*
X212766985Y-85531504D01*
X212800239Y-85321548D01*
X212800239Y-85108974D01*
X212766985Y-84899018D01*
X212701296Y-84696849D01*
X212655543Y-84607055D01*
X212642648Y-84538387D01*
X212668924Y-84473646D01*
X212726030Y-84433389D01*
X212766029Y-84426761D01*
X216470299Y-84426761D01*
X216537338Y-84446446D01*
X216557975Y-84463075D01*
X216602345Y-84507445D01*
X216631951Y-84537051D01*
X216763053Y-84624651D01*
X216763066Y-84624658D01*
X216908737Y-84684996D01*
X216908742Y-84684998D01*
X217063392Y-84715760D01*
X217063395Y-84715761D01*
X217063397Y-84715761D01*
X217221083Y-84715761D01*
X217221084Y-84715760D01*
X217375736Y-84684998D01*
X217521418Y-84624655D01*
X217652528Y-84537050D01*
X217764028Y-84425550D01*
X217851633Y-84294440D01*
X217911976Y-84148758D01*
X217942739Y-83994103D01*
X217942739Y-83836419D01*
X217942739Y-83836416D01*
X217942738Y-83836414D01*
X217941524Y-83830311D01*
X217911976Y-83681764D01*
X217859421Y-83554883D01*
X217851636Y-83536088D01*
X217851629Y-83536075D01*
X217764028Y-83404972D01*
X217764025Y-83404968D01*
X217652531Y-83293474D01*
X217652527Y-83293471D01*
X217521424Y-83205870D01*
X217521411Y-83205863D01*
X217375740Y-83145525D01*
X217375728Y-83145522D01*
X217221084Y-83114761D01*
X217221081Y-83114761D01*
X217063397Y-83114761D01*
X217063394Y-83114761D01*
X216908749Y-83145522D01*
X216908737Y-83145525D01*
X216763064Y-83205864D01*
X216757693Y-83208736D01*
X216756904Y-83207261D01*
X216697884Y-83225741D01*
X216695672Y-83225761D01*
X212861541Y-83225761D01*
X212794502Y-83206076D01*
X212748747Y-83153272D01*
X212738803Y-83084114D01*
X212743610Y-83063443D01*
X212766985Y-82991504D01*
X212800239Y-82781548D01*
X212800239Y-82568974D01*
X212766985Y-82359018D01*
X212701296Y-82156849D01*
X212604790Y-81967445D01*
X212604788Y-81967442D01*
X212604787Y-81967440D01*
X212479848Y-81795474D01*
X212329525Y-81645151D01*
X212157559Y-81520212D01*
X212156854Y-81519852D01*
X212148793Y-81515746D01*
X212097998Y-81467773D01*
X212081202Y-81399953D01*
X212103738Y-81333817D01*
X212148793Y-81294776D01*
X212157555Y-81290312D01*
X212179528Y-81274347D01*
X212329525Y-81165370D01*
X212329527Y-81165367D01*
X212329531Y-81165365D01*
X212479843Y-81015053D01*
X212479845Y-81015049D01*
X212479848Y-81015047D01*
X212604787Y-80843081D01*
X212604786Y-80843081D01*
X212604790Y-80843077D01*
X212701296Y-80653673D01*
X212766985Y-80451504D01*
X212800239Y-80241548D01*
X212800239Y-80028974D01*
X212766985Y-79819018D01*
X212701296Y-79616849D01*
X212701295Y-79616847D01*
X212699790Y-79612215D01*
X212701167Y-79611767D01*
X212694392Y-79548745D01*
X212725666Y-79486266D01*
X212785755Y-79450613D01*
X212816422Y-79446761D01*
X216504810Y-79446761D01*
X216589354Y-79429943D01*
X216630483Y-79421762D01*
X216630490Y-79421758D01*
X216636310Y-79419994D01*
X216636890Y-79421906D01*
X216697222Y-79415403D01*
X216759710Y-79446661D01*
G37*
%TD.AperFunction*%
%TA.AperFunction,Conductor*%
G36*
X261692539Y-51770185D02*
G01*
X261738294Y-51822989D01*
X261749500Y-51874500D01*
X261749500Y-133125500D01*
X261729815Y-133192539D01*
X261677011Y-133238294D01*
X261625500Y-133249500D01*
X202374500Y-133249500D01*
X202307461Y-133229815D01*
X202261706Y-133177011D01*
X202250500Y-133125500D01*
X202250500Y-124106991D01*
X253191639Y-124106991D01*
X253191639Y-124313930D01*
X253232007Y-124516873D01*
X253232009Y-124516881D01*
X253311197Y-124708057D01*
X253426163Y-124880118D01*
X253572481Y-125026436D01*
X253572484Y-125026438D01*
X253744541Y-125141402D01*
X253935719Y-125220591D01*
X254138669Y-125260960D01*
X254138673Y-125260961D01*
X254138674Y-125260961D01*
X255245605Y-125260961D01*
X255245606Y-125260960D01*
X255448559Y-125220591D01*
X255639737Y-125141402D01*
X255811794Y-125026438D01*
X255958116Y-124880116D01*
X256073080Y-124708059D01*
X256152269Y-124516881D01*
X256192639Y-124313926D01*
X256192639Y-124123850D01*
X257491739Y-124123850D01*
X257491739Y-124297072D01*
X257518837Y-124468162D01*
X257572366Y-124632906D01*
X257651007Y-124787249D01*
X257752825Y-124927389D01*
X257875311Y-125049875D01*
X258015451Y-125151693D01*
X258169794Y-125230334D01*
X258334538Y-125283863D01*
X258505628Y-125310961D01*
X258505629Y-125310961D01*
X259278849Y-125310961D01*
X259278850Y-125310961D01*
X259449940Y-125283863D01*
X259614684Y-125230334D01*
X259769027Y-125151693D01*
X259909167Y-125049875D01*
X260031653Y-124927389D01*
X260133471Y-124787249D01*
X260212112Y-124632906D01*
X260265641Y-124468162D01*
X260292739Y-124297072D01*
X260292739Y-124123850D01*
X260265641Y-123952760D01*
X260212112Y-123788016D01*
X260133471Y-123633673D01*
X260031653Y-123493533D01*
X259909167Y-123371047D01*
X259769027Y-123269229D01*
X259614684Y-123190588D01*
X259449940Y-123137059D01*
X259449938Y-123137058D01*
X259449937Y-123137058D01*
X259318510Y-123116242D01*
X259278850Y-123109961D01*
X258505628Y-123109961D01*
X258465967Y-123116242D01*
X258334541Y-123137058D01*
X258169791Y-123190589D01*
X258015450Y-123269229D01*
X257935495Y-123327320D01*
X257875311Y-123371047D01*
X257875309Y-123371049D01*
X257875308Y-123371049D01*
X257752827Y-123493530D01*
X257752827Y-123493531D01*
X257752825Y-123493533D01*
X257718481Y-123540803D01*
X257651007Y-123633672D01*
X257572367Y-123788013D01*
X257518836Y-123952763D01*
X257494409Y-124106991D01*
X257491739Y-124123850D01*
X256192639Y-124123850D01*
X256192639Y-124106996D01*
X256152269Y-123904041D01*
X256073080Y-123712863D01*
X255958116Y-123540806D01*
X255958114Y-123540803D01*
X255811797Y-123394486D01*
X255811793Y-123394483D01*
X255716020Y-123330489D01*
X255671215Y-123276877D01*
X255662508Y-123207552D01*
X255689285Y-123151582D01*
X255687910Y-123150527D01*
X255692855Y-123144080D01*
X255692859Y-123144077D01*
X255771916Y-123007145D01*
X255812839Y-122854418D01*
X255812839Y-122696304D01*
X255771916Y-122543577D01*
X255728715Y-122468750D01*
X255692863Y-122406651D01*
X255692857Y-122406643D01*
X255581056Y-122294842D01*
X255581048Y-122294836D01*
X255444129Y-122215787D01*
X255444125Y-122215785D01*
X255444123Y-122215784D01*
X255291396Y-122174861D01*
X255133282Y-122174861D01*
X254980555Y-122215784D01*
X254980548Y-122215787D01*
X254843629Y-122294836D01*
X254843621Y-122294842D01*
X254731820Y-122406643D01*
X254731814Y-122406651D01*
X254652765Y-122543570D01*
X254652762Y-122543577D01*
X254611839Y-122696304D01*
X254611839Y-122854418D01*
X254636017Y-122944651D01*
X254651884Y-123003868D01*
X254650221Y-123073718D01*
X254611058Y-123131580D01*
X254546830Y-123159084D01*
X254532109Y-123159961D01*
X254138669Y-123159961D01*
X253935726Y-123200329D01*
X253935718Y-123200331D01*
X253744542Y-123279519D01*
X253572481Y-123394485D01*
X253426163Y-123540803D01*
X253311197Y-123712864D01*
X253232009Y-123904040D01*
X253232007Y-123904048D01*
X253191639Y-124106991D01*
X202250500Y-124106991D01*
X202250500Y-100369497D01*
X202648239Y-100369497D01*
X202648239Y-100369500D01*
X202648239Y-119148330D01*
X202664482Y-119229985D01*
X202673238Y-119274005D01*
X202722274Y-119392388D01*
X202793462Y-119498930D01*
X202793465Y-119498934D01*
X202793466Y-119498935D01*
X205632723Y-122338191D01*
X205666208Y-122399514D01*
X205666659Y-122401681D01*
X205680000Y-122468750D01*
X205680003Y-122468762D01*
X205740341Y-122614433D01*
X205740348Y-122614446D01*
X205827949Y-122745549D01*
X205827952Y-122745553D01*
X205939446Y-122857047D01*
X205939450Y-122857050D01*
X206070553Y-122944651D01*
X206070566Y-122944658D01*
X206213514Y-123003868D01*
X206216242Y-123004998D01*
X206370892Y-123035760D01*
X206370895Y-123035761D01*
X206370897Y-123035761D01*
X206528583Y-123035761D01*
X206528584Y-123035760D01*
X206683236Y-123004998D01*
X206828918Y-122944655D01*
X206960028Y-122857050D01*
X207071528Y-122745550D01*
X207159133Y-122614440D01*
X207219476Y-122468758D01*
X207250239Y-122314103D01*
X207250239Y-122156419D01*
X207250239Y-122156416D01*
X207250238Y-122156414D01*
X207219477Y-122001771D01*
X207219476Y-122001764D01*
X207159133Y-121856082D01*
X207124433Y-121804150D01*
X207103555Y-121737476D01*
X207122039Y-121670096D01*
X207124415Y-121666397D01*
X207159133Y-121614440D01*
X207219476Y-121468758D01*
X207250239Y-121314103D01*
X207250239Y-121312838D01*
X209774714Y-121312838D01*
X209879975Y-121356439D01*
X209879979Y-121356440D01*
X210024865Y-121385260D01*
X210024868Y-121385261D01*
X210172610Y-121385261D01*
X210172612Y-121385260D01*
X210317499Y-121356440D01*
X210317514Y-121356436D01*
X210422763Y-121312839D01*
X210422763Y-121312838D01*
X211274714Y-121312838D01*
X211379975Y-121356439D01*
X211379979Y-121356440D01*
X211524865Y-121385260D01*
X211524868Y-121385261D01*
X211672610Y-121385261D01*
X211672612Y-121385260D01*
X211817499Y-121356440D01*
X211817514Y-121356436D01*
X211922763Y-121312839D01*
X211922763Y-121312838D01*
X211598740Y-120988815D01*
X211598739Y-120988815D01*
X211274714Y-121312838D01*
X210422763Y-121312838D01*
X210098740Y-120988815D01*
X210098739Y-120988815D01*
X209774714Y-121312838D01*
X207250239Y-121312838D01*
X207250239Y-121156419D01*
X207250239Y-121156416D01*
X207250238Y-121156414D01*
X207219477Y-121001771D01*
X207219476Y-121001764D01*
X207159133Y-120856082D01*
X207121135Y-120799214D01*
X207115485Y-120781168D01*
X207105262Y-120765260D01*
X207100810Y-120734297D01*
X207100259Y-120732537D01*
X207100239Y-120730325D01*
X207100239Y-120561387D01*
X209348739Y-120561387D01*
X209348739Y-120709134D01*
X209377559Y-120854020D01*
X209377561Y-120854028D01*
X209421160Y-120959285D01*
X209745185Y-120635261D01*
X209745185Y-120635260D01*
X209725295Y-120615370D01*
X209998739Y-120615370D01*
X209998739Y-120655152D01*
X210013963Y-120691906D01*
X210042094Y-120720037D01*
X210078848Y-120735261D01*
X210118630Y-120735261D01*
X210155384Y-120720037D01*
X210183515Y-120691906D01*
X210198739Y-120655152D01*
X210198739Y-120635260D01*
X210452293Y-120635260D01*
X210452293Y-120635262D01*
X210776315Y-120959284D01*
X210824546Y-120949691D01*
X210872930Y-120949691D01*
X210921161Y-120959285D01*
X211245185Y-120635261D01*
X211245185Y-120635260D01*
X211225295Y-120615370D01*
X211498739Y-120615370D01*
X211498739Y-120655152D01*
X211513963Y-120691906D01*
X211542094Y-120720037D01*
X211578848Y-120735261D01*
X211618630Y-120735261D01*
X211655384Y-120720037D01*
X211683515Y-120691906D01*
X211698739Y-120655152D01*
X211698739Y-120635260D01*
X211952293Y-120635260D01*
X211952293Y-120635262D01*
X212276316Y-120959285D01*
X212276317Y-120959285D01*
X212319914Y-120854036D01*
X212319918Y-120854021D01*
X212348738Y-120709134D01*
X212348739Y-120709132D01*
X212348739Y-120561389D01*
X212348738Y-120561387D01*
X212319918Y-120416501D01*
X212319917Y-120416497D01*
X212276316Y-120311236D01*
X211952293Y-120635260D01*
X211698739Y-120635260D01*
X211698739Y-120615370D01*
X211683515Y-120578616D01*
X211655384Y-120550485D01*
X211618630Y-120535261D01*
X211578848Y-120535261D01*
X211542094Y-120550485D01*
X211513963Y-120578616D01*
X211498739Y-120615370D01*
X211225295Y-120615370D01*
X210921160Y-120311235D01*
X210872929Y-120320829D01*
X210824547Y-120320829D01*
X210776316Y-120311235D01*
X210452293Y-120635260D01*
X210198739Y-120635260D01*
X210198739Y-120615370D01*
X210183515Y-120578616D01*
X210155384Y-120550485D01*
X210118630Y-120535261D01*
X210078848Y-120535261D01*
X210042094Y-120550485D01*
X210013963Y-120578616D01*
X209998739Y-120615370D01*
X209725295Y-120615370D01*
X209421160Y-120311235D01*
X209421159Y-120311235D01*
X209377562Y-120416489D01*
X209377559Y-120416501D01*
X209348739Y-120561387D01*
X207100239Y-120561387D01*
X207100239Y-119812838D01*
X209774713Y-119812838D01*
X209784307Y-119861069D01*
X209784307Y-119909451D01*
X209774713Y-119957682D01*
X210098739Y-120281707D01*
X210098740Y-120281707D01*
X210422763Y-119957683D01*
X210413169Y-119909452D01*
X210413169Y-119901114D01*
X210411279Y-119896311D01*
X210413169Y-119861068D01*
X210422762Y-119812838D01*
X211274713Y-119812838D01*
X211284307Y-119861069D01*
X211284307Y-119909451D01*
X211274713Y-119957682D01*
X211598739Y-120281707D01*
X211598740Y-120281707D01*
X211922763Y-119957683D01*
X211913169Y-119909452D01*
X211913169Y-119861068D01*
X211922762Y-119812837D01*
X211598740Y-119488815D01*
X211598739Y-119488815D01*
X211274713Y-119812838D01*
X210422762Y-119812838D01*
X210422762Y-119812837D01*
X210098740Y-119488815D01*
X210098739Y-119488815D01*
X209774713Y-119812838D01*
X207100239Y-119812838D01*
X207100239Y-119671189D01*
X207075241Y-119545522D01*
X207075240Y-119545521D01*
X207075240Y-119545517D01*
X207026204Y-119427134D01*
X207026203Y-119427133D01*
X207026200Y-119427127D01*
X206955016Y-119320593D01*
X206955015Y-119320592D01*
X206864408Y-119229985D01*
X206695810Y-119061387D01*
X209348739Y-119061387D01*
X209348739Y-119209134D01*
X209377559Y-119354020D01*
X209377561Y-119354028D01*
X209421160Y-119459285D01*
X209745185Y-119135261D01*
X209745185Y-119135260D01*
X209725295Y-119115370D01*
X209998739Y-119115370D01*
X209998739Y-119155152D01*
X210013963Y-119191906D01*
X210042094Y-119220037D01*
X210078848Y-119235261D01*
X210118630Y-119235261D01*
X210155384Y-119220037D01*
X210183515Y-119191906D01*
X210198739Y-119155152D01*
X210198739Y-119135260D01*
X210452293Y-119135260D01*
X210452293Y-119135262D01*
X210776315Y-119459284D01*
X210824546Y-119449691D01*
X210872930Y-119449691D01*
X210921161Y-119459285D01*
X211245185Y-119135261D01*
X211245185Y-119135260D01*
X211225295Y-119115370D01*
X211498739Y-119115370D01*
X211498739Y-119155152D01*
X211513963Y-119191906D01*
X211542094Y-119220037D01*
X211578848Y-119235261D01*
X211618630Y-119235261D01*
X211655384Y-119220037D01*
X211683515Y-119191906D01*
X211698739Y-119155152D01*
X211698739Y-119135260D01*
X211952293Y-119135260D01*
X211952293Y-119135262D01*
X212276316Y-119459285D01*
X212276317Y-119459285D01*
X212319914Y-119354036D01*
X212319918Y-119354021D01*
X212348738Y-119209134D01*
X212348739Y-119209132D01*
X212348739Y-119061389D01*
X212348738Y-119061387D01*
X212319918Y-118916501D01*
X212319917Y-118916497D01*
X212276316Y-118811236D01*
X211952293Y-119135260D01*
X211698739Y-119135260D01*
X211698739Y-119115370D01*
X211683515Y-119078616D01*
X211655384Y-119050485D01*
X211618630Y-119035261D01*
X211578848Y-119035261D01*
X211542094Y-119050485D01*
X211513963Y-119078616D01*
X211498739Y-119115370D01*
X211225295Y-119115370D01*
X210921160Y-118811235D01*
X210872929Y-118820829D01*
X210824547Y-118820829D01*
X210776316Y-118811235D01*
X210452293Y-119135260D01*
X210198739Y-119135260D01*
X210198739Y-119115370D01*
X210183515Y-119078616D01*
X210155384Y-119050485D01*
X210118630Y-119035261D01*
X210078848Y-119035261D01*
X210042094Y-119050485D01*
X210013963Y-119078616D01*
X209998739Y-119115370D01*
X209725295Y-119115370D01*
X209421160Y-118811235D01*
X209421159Y-118811235D01*
X209377562Y-118916489D01*
X209377559Y-118916501D01*
X209348739Y-119061387D01*
X206695810Y-119061387D01*
X206397876Y-118763453D01*
X205994129Y-118359705D01*
X205947262Y-118312838D01*
X209774713Y-118312838D01*
X209784307Y-118361069D01*
X209784307Y-118409451D01*
X209774713Y-118457682D01*
X210098739Y-118781707D01*
X210098740Y-118781707D01*
X210422763Y-118457683D01*
X210413169Y-118409452D01*
X210413169Y-118401114D01*
X210411279Y-118396311D01*
X210413169Y-118361068D01*
X210422762Y-118312838D01*
X211274713Y-118312838D01*
X211284307Y-118361069D01*
X211284307Y-118409451D01*
X211274713Y-118457682D01*
X211598739Y-118781707D01*
X211598740Y-118781707D01*
X211922763Y-118457683D01*
X211913169Y-118409452D01*
X211913169Y-118361068D01*
X211922762Y-118312837D01*
X211598740Y-117988815D01*
X211598739Y-117988815D01*
X211274713Y-118312838D01*
X210422762Y-118312838D01*
X210422762Y-118312837D01*
X210098740Y-117988815D01*
X210098739Y-117988815D01*
X209774713Y-118312838D01*
X205947262Y-118312838D01*
X205195811Y-117561387D01*
X209348739Y-117561387D01*
X209348739Y-117709134D01*
X209377559Y-117854020D01*
X209377561Y-117854028D01*
X209421160Y-117959285D01*
X209745185Y-117635261D01*
X209745185Y-117635260D01*
X209725295Y-117615370D01*
X209998739Y-117615370D01*
X209998739Y-117655152D01*
X210013963Y-117691906D01*
X210042094Y-117720037D01*
X210078848Y-117735261D01*
X210118630Y-117735261D01*
X210155384Y-117720037D01*
X210183515Y-117691906D01*
X210198739Y-117655152D01*
X210198739Y-117635260D01*
X210452293Y-117635260D01*
X210452293Y-117635262D01*
X210776315Y-117959284D01*
X210824546Y-117949691D01*
X210872930Y-117949691D01*
X210921161Y-117959285D01*
X211245185Y-117635261D01*
X211245185Y-117635260D01*
X211225295Y-117615370D01*
X211498739Y-117615370D01*
X211498739Y-117655152D01*
X211513963Y-117691906D01*
X211542094Y-117720037D01*
X211578848Y-117735261D01*
X211618630Y-117735261D01*
X211655384Y-117720037D01*
X211683515Y-117691906D01*
X211698739Y-117655152D01*
X211698739Y-117635260D01*
X211952293Y-117635260D01*
X211952293Y-117635262D01*
X212276316Y-117959285D01*
X212276317Y-117959285D01*
X212319914Y-117854036D01*
X212319918Y-117854021D01*
X212348738Y-117709134D01*
X212348739Y-117709132D01*
X212348739Y-117561389D01*
X212348738Y-117561387D01*
X212319918Y-117416501D01*
X212319917Y-117416497D01*
X212276316Y-117311236D01*
X211952293Y-117635260D01*
X211698739Y-117635260D01*
X211698739Y-117615370D01*
X211683515Y-117578616D01*
X211655384Y-117550485D01*
X211618630Y-117535261D01*
X211578848Y-117535261D01*
X211542094Y-117550485D01*
X211513963Y-117578616D01*
X211498739Y-117615370D01*
X211225295Y-117615370D01*
X210921160Y-117311235D01*
X210872929Y-117320829D01*
X210824547Y-117320829D01*
X210776316Y-117311235D01*
X210452293Y-117635260D01*
X210198739Y-117635260D01*
X210198739Y-117615370D01*
X210183515Y-117578616D01*
X210155384Y-117550485D01*
X210118630Y-117535261D01*
X210078848Y-117535261D01*
X210042094Y-117550485D01*
X210013963Y-117578616D01*
X209998739Y-117615370D01*
X209725295Y-117615370D01*
X209421160Y-117311235D01*
X209421159Y-117311235D01*
X209377562Y-117416489D01*
X209377559Y-117416501D01*
X209348739Y-117561387D01*
X205195811Y-117561387D01*
X205136558Y-117502134D01*
X205103073Y-117440811D01*
X205100239Y-117414453D01*
X205100239Y-116957681D01*
X209774713Y-116957681D01*
X209774713Y-116957682D01*
X210098739Y-117281707D01*
X210098740Y-117281707D01*
X210422763Y-116957682D01*
X210422761Y-116957681D01*
X211274713Y-116957681D01*
X211274713Y-116957682D01*
X211598739Y-117281707D01*
X211598740Y-117281707D01*
X211922763Y-116957682D01*
X211817506Y-116914083D01*
X211817498Y-116914081D01*
X211672611Y-116885261D01*
X211524867Y-116885261D01*
X211379979Y-116914081D01*
X211379967Y-116914084D01*
X211274713Y-116957681D01*
X210422761Y-116957681D01*
X210317506Y-116914083D01*
X210317498Y-116914081D01*
X210172611Y-116885261D01*
X210024867Y-116885261D01*
X209879979Y-116914081D01*
X209879967Y-116914084D01*
X209774713Y-116957681D01*
X205100239Y-116957681D01*
X205100239Y-102213530D01*
X205119924Y-102146491D01*
X205172728Y-102100736D01*
X205241886Y-102090792D01*
X205305442Y-102119817D01*
X205324031Y-102140887D01*
X205324086Y-102140842D01*
X205325348Y-102142380D01*
X205327342Y-102144640D01*
X205327951Y-102145552D01*
X205439446Y-102257047D01*
X205439450Y-102257050D01*
X205570553Y-102344651D01*
X205570566Y-102344658D01*
X205716237Y-102404996D01*
X205716242Y-102404998D01*
X205870892Y-102435760D01*
X205870895Y-102435761D01*
X205870897Y-102435761D01*
X205987212Y-102435761D01*
X206011405Y-102438144D01*
X206044669Y-102444761D01*
X206044670Y-102444761D01*
X207498462Y-102444761D01*
X207565501Y-102464446D01*
X207611256Y-102517250D01*
X207621200Y-102586408D01*
X207616393Y-102607079D01*
X207592981Y-102679131D01*
X207592981Y-102679134D01*
X207582508Y-102745261D01*
X208476727Y-102745261D01*
X208443814Y-102802268D01*
X208409739Y-102929435D01*
X208409739Y-103061087D01*
X208443814Y-103188254D01*
X208476727Y-103245261D01*
X207582508Y-103245261D01*
X207592981Y-103311387D01*
X207592982Y-103311394D01*
X207603219Y-103342899D01*
X207605214Y-103412740D01*
X207569133Y-103472572D01*
X207506432Y-103503400D01*
X207437018Y-103495435D01*
X207416397Y-103484318D01*
X207328924Y-103425870D01*
X207328911Y-103425863D01*
X207183240Y-103365525D01*
X207183228Y-103365522D01*
X207028584Y-103334761D01*
X207028581Y-103334761D01*
X206870897Y-103334761D01*
X206870894Y-103334761D01*
X206716249Y-103365522D01*
X206716237Y-103365525D01*
X206570566Y-103425863D01*
X206570553Y-103425870D01*
X206439450Y-103513471D01*
X206439446Y-103513474D01*
X206327952Y-103624968D01*
X206327949Y-103624972D01*
X206240348Y-103756075D01*
X206240341Y-103756088D01*
X206180003Y-103901759D01*
X206180000Y-103901771D01*
X206149239Y-104056414D01*
X206149239Y-104214107D01*
X206180000Y-104368750D01*
X206180003Y-104368762D01*
X206240341Y-104514433D01*
X206240348Y-104514446D01*
X206327949Y-104645549D01*
X206327952Y-104645553D01*
X206439446Y-104757047D01*
X206439450Y-104757050D01*
X206570553Y-104844651D01*
X206570566Y-104844658D01*
X206716237Y-104904996D01*
X206716242Y-104904998D01*
X206870892Y-104935760D01*
X206870895Y-104935761D01*
X206870897Y-104935761D01*
X207028583Y-104935761D01*
X207028584Y-104935760D01*
X207111587Y-104919250D01*
X207183227Y-104905000D01*
X207183229Y-104904999D01*
X207183236Y-104904998D01*
X207301046Y-104856199D01*
X207309222Y-104854573D01*
X207313563Y-104851784D01*
X207348498Y-104846761D01*
X207543056Y-104846761D01*
X207610095Y-104866446D01*
X207655850Y-104919250D01*
X207665794Y-104988408D01*
X207659297Y-105012088D01*
X207659688Y-105012215D01*
X207592492Y-105219021D01*
X207559239Y-105428974D01*
X207559239Y-105641547D01*
X207592492Y-105851500D01*
X207658183Y-106053675D01*
X207754690Y-106243081D01*
X207879629Y-106415047D01*
X208029952Y-106565370D01*
X208201921Y-106690311D01*
X208210685Y-106694777D01*
X208261481Y-106742752D01*
X208278275Y-106810573D01*
X208255737Y-106876708D01*
X208210685Y-106915745D01*
X208201921Y-106920210D01*
X208029952Y-107045151D01*
X207879629Y-107195474D01*
X207754690Y-107367440D01*
X207658183Y-107556846D01*
X207592492Y-107759021D01*
X207578930Y-107844651D01*
X207559239Y-107968974D01*
X207559239Y-108181548D01*
X207592493Y-108391504D01*
X207594118Y-108396506D01*
X207658183Y-108593675D01*
X207754690Y-108783081D01*
X207879629Y-108955047D01*
X208029952Y-109105370D01*
X208201921Y-109230311D01*
X208210685Y-109234777D01*
X208261481Y-109282752D01*
X208278275Y-109350573D01*
X208255737Y-109416708D01*
X208210685Y-109455745D01*
X208201921Y-109460210D01*
X208029952Y-109585151D01*
X207879629Y-109735474D01*
X207754690Y-109907440D01*
X207658183Y-110096846D01*
X207592492Y-110299021D01*
X207559239Y-110508974D01*
X207559239Y-110721547D01*
X207589972Y-110915592D01*
X207592493Y-110931504D01*
X207620888Y-111018895D01*
X207658183Y-111133675D01*
X207754690Y-111323081D01*
X207879629Y-111495047D01*
X208029952Y-111645370D01*
X208201921Y-111770311D01*
X208210685Y-111774777D01*
X208261481Y-111822752D01*
X208278275Y-111890573D01*
X208255737Y-111956708D01*
X208210685Y-111995745D01*
X208201921Y-112000210D01*
X208029952Y-112125151D01*
X207879629Y-112275474D01*
X207754690Y-112447440D01*
X207658183Y-112636846D01*
X207592492Y-112839021D01*
X207559239Y-113048974D01*
X207559239Y-113261547D01*
X207588240Y-113444655D01*
X207592493Y-113471504D01*
X207638615Y-113613453D01*
X207658183Y-113673675D01*
X207754690Y-113863081D01*
X207879629Y-114035047D01*
X208029952Y-114185370D01*
X208201918Y-114310309D01*
X208201920Y-114310310D01*
X208201923Y-114310312D01*
X208391327Y-114406818D01*
X208593496Y-114472507D01*
X208803452Y-114505761D01*
X208803453Y-114505761D01*
X209016025Y-114505761D01*
X209016026Y-114505761D01*
X209225982Y-114472507D01*
X209428151Y-114406818D01*
X209617555Y-114310312D01*
X209711048Y-114242386D01*
X209789525Y-114185370D01*
X209789527Y-114185367D01*
X209789531Y-114185365D01*
X209939843Y-114035053D01*
X209939845Y-114035049D01*
X209939848Y-114035047D01*
X210064787Y-113863081D01*
X210064786Y-113863081D01*
X210064790Y-113863077D01*
X210069253Y-113854315D01*
X210117227Y-113803520D01*
X210185047Y-113786724D01*
X210251183Y-113809260D01*
X210290225Y-113854317D01*
X210294690Y-113863081D01*
X210419629Y-114035047D01*
X210569952Y-114185370D01*
X210741918Y-114310309D01*
X210741920Y-114310310D01*
X210741923Y-114310312D01*
X210931327Y-114406818D01*
X211133496Y-114472507D01*
X211343452Y-114505761D01*
X211343453Y-114505761D01*
X211556025Y-114505761D01*
X211556026Y-114505761D01*
X211765982Y-114472507D01*
X211968151Y-114406818D01*
X212157555Y-114310312D01*
X212251048Y-114242386D01*
X212329525Y-114185370D01*
X212329527Y-114185367D01*
X212329531Y-114185365D01*
X212479843Y-114035053D01*
X212479845Y-114035049D01*
X212479848Y-114035047D01*
X212604787Y-113863081D01*
X212604786Y-113863081D01*
X212604790Y-113863077D01*
X212701296Y-113673673D01*
X212766985Y-113471504D01*
X212769580Y-113455116D01*
X212799506Y-113391985D01*
X212858817Y-113355051D01*
X212928679Y-113356047D01*
X212960944Y-113371412D01*
X213070553Y-113444651D01*
X213070566Y-113444658D01*
X213216237Y-113504996D01*
X213216242Y-113504998D01*
X213370892Y-113535760D01*
X213370895Y-113535761D01*
X213370897Y-113535761D01*
X213528583Y-113535761D01*
X213528584Y-113535760D01*
X213683236Y-113504998D01*
X213828918Y-113444655D01*
X213960028Y-113357050D01*
X214071528Y-113245550D01*
X214159133Y-113114440D01*
X214219476Y-112968758D01*
X214250239Y-112814103D01*
X214250239Y-112656419D01*
X214250239Y-112656416D01*
X214250238Y-112656414D01*
X214219477Y-112501771D01*
X214219476Y-112501764D01*
X214196977Y-112447445D01*
X214159136Y-112356088D01*
X214159129Y-112356075D01*
X214071528Y-112224972D01*
X214071525Y-112224968D01*
X213960031Y-112113474D01*
X213960027Y-112113471D01*
X213828924Y-112025870D01*
X213828911Y-112025863D01*
X213683240Y-111965525D01*
X213683228Y-111965522D01*
X213616159Y-111952181D01*
X213554248Y-111919796D01*
X213552669Y-111918245D01*
X213083413Y-111448988D01*
X213083412Y-111448987D01*
X213083408Y-111448984D01*
X212976866Y-111377796D01*
X212858483Y-111328760D01*
X212858478Y-111328758D01*
X212786166Y-111314374D01*
X212724255Y-111281988D01*
X212689682Y-111221272D01*
X212692986Y-111152761D01*
X212695844Y-111144371D01*
X212701296Y-111133673D01*
X212738339Y-111019664D01*
X212738602Y-111018895D01*
X212758241Y-110991034D01*
X212777481Y-110962897D01*
X212778328Y-110962538D01*
X212778858Y-110961788D01*
X212810424Y-110948975D01*
X212841840Y-110935699D01*
X212843158Y-110935688D01*
X212843598Y-110935510D01*
X212844491Y-110935677D01*
X212868134Y-110935489D01*
X212870895Y-110935761D01*
X212870897Y-110935761D01*
X213028583Y-110935761D01*
X213028584Y-110935760D01*
X213183236Y-110904998D01*
X213328918Y-110844655D01*
X213460028Y-110757050D01*
X213571528Y-110645550D01*
X213659133Y-110514440D01*
X213719476Y-110368758D01*
X213750239Y-110214103D01*
X213750239Y-110056419D01*
X213750239Y-110056416D01*
X213750238Y-110056414D01*
X213720606Y-109907445D01*
X213719476Y-109901764D01*
X213659133Y-109756082D01*
X213621135Y-109699214D01*
X213600259Y-109632537D01*
X213600239Y-109630325D01*
X213600239Y-109511189D01*
X213575241Y-109385522D01*
X213575240Y-109385521D01*
X213575240Y-109385517D01*
X213526204Y-109267134D01*
X213526203Y-109267132D01*
X213526202Y-109267130D01*
X213524617Y-109264759D01*
X213524609Y-109264748D01*
X213455015Y-109160591D01*
X213455013Y-109160589D01*
X213455011Y-109160586D01*
X213455010Y-109160585D01*
X212800396Y-108505972D01*
X212766911Y-108444649D01*
X212767428Y-108396506D01*
X212766223Y-108396316D01*
X212800239Y-108181547D01*
X212800239Y-107968974D01*
X212766985Y-107759018D01*
X212701296Y-107556849D01*
X212701295Y-107556847D01*
X212699790Y-107552215D01*
X212701167Y-107551767D01*
X212694392Y-107488745D01*
X212725666Y-107426266D01*
X212785755Y-107390613D01*
X212816422Y-107386761D01*
X213104605Y-107386761D01*
X213171644Y-107406446D01*
X213217399Y-107459250D01*
X213219154Y-107463282D01*
X213229702Y-107488745D01*
X213240344Y-107514439D01*
X213240348Y-107514446D01*
X213327949Y-107645549D01*
X213327952Y-107645553D01*
X213439446Y-107757047D01*
X213439450Y-107757050D01*
X213570553Y-107844651D01*
X213570566Y-107844658D01*
X213716237Y-107904996D01*
X213716242Y-107904998D01*
X213870892Y-107935760D01*
X213870895Y-107935761D01*
X213870897Y-107935761D01*
X214028583Y-107935761D01*
X214028584Y-107935760D01*
X214183236Y-107904998D01*
X214328918Y-107844655D01*
X214460028Y-107757050D01*
X214571528Y-107645550D01*
X214659133Y-107514440D01*
X214719476Y-107368758D01*
X214750239Y-107214103D01*
X214750239Y-107056419D01*
X214750239Y-107056416D01*
X214750238Y-107056414D01*
X214719477Y-106901771D01*
X214719476Y-106901764D01*
X214681704Y-106810573D01*
X214659136Y-106756088D01*
X214659129Y-106756075D01*
X214571528Y-106624972D01*
X214571525Y-106624968D01*
X214460031Y-106513474D01*
X214460027Y-106513471D01*
X214328924Y-106425870D01*
X214328911Y-106425863D01*
X214183240Y-106365525D01*
X214183228Y-106365522D01*
X214116159Y-106352181D01*
X214054248Y-106319796D01*
X214052668Y-106318245D01*
X214033936Y-106299513D01*
X213965408Y-106230984D01*
X213858866Y-106159796D01*
X213740483Y-106110760D01*
X213740477Y-106110758D01*
X213614810Y-106085761D01*
X213614808Y-106085761D01*
X212861541Y-106085761D01*
X212794502Y-106066076D01*
X212748747Y-106013272D01*
X212738803Y-105944114D01*
X212743610Y-105923443D01*
X212766985Y-105851504D01*
X212800239Y-105641548D01*
X212800239Y-105428974D01*
X212766985Y-105219018D01*
X212701296Y-105016849D01*
X212604790Y-104827445D01*
X212604788Y-104827442D01*
X212604787Y-104827440D01*
X212479848Y-104655474D01*
X212329525Y-104505151D01*
X212157559Y-104380212D01*
X212156854Y-104379852D01*
X212148793Y-104375746D01*
X212097998Y-104327773D01*
X212081202Y-104259953D01*
X212103738Y-104193817D01*
X212148793Y-104154776D01*
X212157555Y-104150312D01*
X212286789Y-104056419D01*
X212329525Y-104025370D01*
X212329527Y-104025367D01*
X212329531Y-104025365D01*
X212479843Y-103875053D01*
X212479845Y-103875049D01*
X212479848Y-103875047D01*
X212604787Y-103703081D01*
X212604786Y-103703081D01*
X212604790Y-103703077D01*
X212701296Y-103513673D01*
X212766985Y-103311504D01*
X212800239Y-103101548D01*
X212800239Y-102888974D01*
X212766985Y-102679018D01*
X212701296Y-102476849D01*
X212604790Y-102287445D01*
X212604788Y-102287442D01*
X212604787Y-102287440D01*
X212479848Y-102115474D01*
X212329525Y-101965151D01*
X212157559Y-101840212D01*
X212156854Y-101839852D01*
X212148793Y-101835746D01*
X212097998Y-101787773D01*
X212081202Y-101719953D01*
X212103738Y-101653817D01*
X212148793Y-101614776D01*
X212157555Y-101610312D01*
X212240659Y-101549934D01*
X212329525Y-101485370D01*
X212329527Y-101485367D01*
X212329531Y-101485365D01*
X212479843Y-101335053D01*
X212479845Y-101335049D01*
X212479848Y-101335047D01*
X212607654Y-101159136D01*
X212608998Y-101160112D01*
X212655444Y-101118095D01*
X212709357Y-101105761D01*
X222759930Y-101105761D01*
X222826969Y-101125446D01*
X222872724Y-101178250D01*
X222882668Y-101247408D01*
X222853643Y-101310964D01*
X222847611Y-101317442D01*
X221243464Y-102921589D01*
X221243463Y-102921589D01*
X221237049Y-102931190D01*
X221237048Y-102931192D01*
X221172273Y-103028135D01*
X221123238Y-103146516D01*
X221123236Y-103146522D01*
X221098239Y-103272189D01*
X221098239Y-113998331D01*
X221121907Y-114117311D01*
X221121909Y-114117320D01*
X221123238Y-114124004D01*
X221123239Y-114124007D01*
X221172273Y-114242386D01*
X221243465Y-114348934D01*
X224535064Y-117640533D01*
X224535071Y-117640539D01*
X224611948Y-117691906D01*
X224641613Y-117711727D01*
X224710960Y-117740450D01*
X224759995Y-117760762D01*
X224759998Y-117760762D01*
X224759999Y-117760763D01*
X224885667Y-117785761D01*
X224885670Y-117785761D01*
X235944804Y-117785761D01*
X236011843Y-117805446D01*
X236013648Y-117806627D01*
X236070560Y-117844655D01*
X236070562Y-117844656D01*
X236070566Y-117844658D01*
X236216237Y-117904996D01*
X236216242Y-117904998D01*
X236370892Y-117935760D01*
X236370895Y-117935761D01*
X236370897Y-117935761D01*
X236528583Y-117935761D01*
X236528584Y-117935760D01*
X236683236Y-117904998D01*
X236828918Y-117844655D01*
X236960028Y-117757050D01*
X237071528Y-117645550D01*
X237159133Y-117514440D01*
X237219476Y-117368758D01*
X237250239Y-117214103D01*
X237250239Y-117056419D01*
X237250239Y-117056416D01*
X237250238Y-117056414D01*
X237230599Y-116957682D01*
X237219476Y-116901764D01*
X237212640Y-116885261D01*
X237159136Y-116756088D01*
X237159129Y-116756075D01*
X237071528Y-116624972D01*
X237071525Y-116624968D01*
X236960031Y-116513474D01*
X236960027Y-116513471D01*
X236828924Y-116425870D01*
X236828911Y-116425863D01*
X236683240Y-116365525D01*
X236683228Y-116365522D01*
X236528584Y-116334761D01*
X236528581Y-116334761D01*
X236370897Y-116334761D01*
X236370894Y-116334761D01*
X236216249Y-116365522D01*
X236216237Y-116365525D01*
X236070566Y-116425863D01*
X236070559Y-116425867D01*
X236048883Y-116440351D01*
X236013694Y-116463863D01*
X235947018Y-116484741D01*
X235944804Y-116484761D01*
X225270547Y-116484761D01*
X225203508Y-116465076D01*
X225182866Y-116448442D01*
X224191415Y-115456991D01*
X253191639Y-115456991D01*
X253191639Y-115663930D01*
X253232007Y-115866873D01*
X253232009Y-115866881D01*
X253311197Y-116058057D01*
X253426163Y-116230118D01*
X253572481Y-116376436D01*
X253572484Y-116376438D01*
X253744541Y-116491402D01*
X253935719Y-116570591D01*
X254138669Y-116610960D01*
X254138673Y-116610961D01*
X254138674Y-116610961D01*
X254532056Y-116610961D01*
X254599095Y-116630646D01*
X254644850Y-116683450D01*
X254654794Y-116752608D01*
X254651834Y-116767040D01*
X254611839Y-116916304D01*
X254611839Y-117074418D01*
X254649269Y-117214107D01*
X254652762Y-117227144D01*
X254652765Y-117227151D01*
X254731814Y-117364070D01*
X254731818Y-117364075D01*
X254731819Y-117364077D01*
X254843623Y-117475881D01*
X254843625Y-117475882D01*
X254843629Y-117475885D01*
X254910420Y-117514446D01*
X254980555Y-117554938D01*
X255133282Y-117595861D01*
X255133284Y-117595861D01*
X255291394Y-117595861D01*
X255291396Y-117595861D01*
X255444123Y-117554938D01*
X255581055Y-117475881D01*
X255692859Y-117364077D01*
X255771916Y-117227145D01*
X255812839Y-117074418D01*
X255812839Y-116916304D01*
X255771916Y-116763577D01*
X255725655Y-116683450D01*
X255692863Y-116626651D01*
X255692860Y-116626648D01*
X255692859Y-116626645D01*
X255692856Y-116626642D01*
X255687913Y-116620200D01*
X255690354Y-116618326D01*
X255663864Y-116569812D01*
X255668848Y-116500120D01*
X255710720Y-116444187D01*
X255716127Y-116440360D01*
X255811794Y-116376438D01*
X255958116Y-116230116D01*
X256073080Y-116058059D01*
X256152269Y-115866881D01*
X256192639Y-115663926D01*
X256192639Y-115473850D01*
X257491739Y-115473850D01*
X257491739Y-115647072D01*
X257518837Y-115818162D01*
X257572366Y-115982906D01*
X257651007Y-116137249D01*
X257752825Y-116277389D01*
X257875311Y-116399875D01*
X258015451Y-116501693D01*
X258169794Y-116580334D01*
X258334538Y-116633863D01*
X258505628Y-116660961D01*
X258505629Y-116660961D01*
X259278849Y-116660961D01*
X259278850Y-116660961D01*
X259449940Y-116633863D01*
X259614684Y-116580334D01*
X259769027Y-116501693D01*
X259909167Y-116399875D01*
X260031653Y-116277389D01*
X260133471Y-116137249D01*
X260212112Y-115982906D01*
X260265641Y-115818162D01*
X260292739Y-115647072D01*
X260292739Y-115473850D01*
X260265641Y-115302760D01*
X260212112Y-115138016D01*
X260133471Y-114983673D01*
X260031653Y-114843533D01*
X259909167Y-114721047D01*
X259769027Y-114619229D01*
X259614684Y-114540588D01*
X259449940Y-114487059D01*
X259449938Y-114487058D01*
X259449937Y-114487058D01*
X259318510Y-114466242D01*
X259278850Y-114459961D01*
X258505628Y-114459961D01*
X258465967Y-114466242D01*
X258334541Y-114487058D01*
X258169791Y-114540589D01*
X258015450Y-114619229D01*
X257935495Y-114677320D01*
X257875311Y-114721047D01*
X257875309Y-114721049D01*
X257875308Y-114721049D01*
X257752827Y-114843530D01*
X257752827Y-114843531D01*
X257752825Y-114843533D01*
X257718481Y-114890803D01*
X257651007Y-114983672D01*
X257572367Y-115138013D01*
X257518836Y-115302763D01*
X257494409Y-115456991D01*
X257491739Y-115473850D01*
X256192639Y-115473850D01*
X256192639Y-115456996D01*
X256152269Y-115254041D01*
X256073080Y-115062863D01*
X255958116Y-114890806D01*
X255958114Y-114890803D01*
X255811796Y-114744485D01*
X255725765Y-114687002D01*
X255639737Y-114629520D01*
X255614892Y-114619229D01*
X255448559Y-114550331D01*
X255448551Y-114550329D01*
X255245608Y-114509961D01*
X255245604Y-114509961D01*
X254138674Y-114509961D01*
X254138669Y-114509961D01*
X253935726Y-114550329D01*
X253935718Y-114550331D01*
X253744542Y-114629519D01*
X253572481Y-114744485D01*
X253426163Y-114890803D01*
X253311197Y-115062864D01*
X253232009Y-115254040D01*
X253232007Y-115254048D01*
X253191639Y-115456991D01*
X224191415Y-115456991D01*
X222435558Y-113701134D01*
X222402073Y-113639811D01*
X222399239Y-113613453D01*
X222399239Y-104056414D01*
X226649239Y-104056414D01*
X226649239Y-104214107D01*
X226680000Y-104368750D01*
X226680003Y-104368762D01*
X226740341Y-104514433D01*
X226740348Y-104514446D01*
X226827949Y-104645549D01*
X226827952Y-104645553D01*
X226939446Y-104757047D01*
X226939450Y-104757050D01*
X227070553Y-104844651D01*
X227070566Y-104844658D01*
X227216237Y-104904996D01*
X227216242Y-104904998D01*
X227370892Y-104935760D01*
X227370895Y-104935761D01*
X227370897Y-104935761D01*
X227528583Y-104935761D01*
X227528584Y-104935760D01*
X227683236Y-104904998D01*
X227828918Y-104844655D01*
X227885783Y-104806658D01*
X227903830Y-104801007D01*
X227919739Y-104790784D01*
X227950698Y-104786332D01*
X227952460Y-104785781D01*
X227954674Y-104785761D01*
X228128931Y-104785761D01*
X228195970Y-104805446D01*
X228216612Y-104822080D01*
X229632722Y-106238190D01*
X229666207Y-106299513D01*
X229666658Y-106301679D01*
X229680000Y-106368752D01*
X229680002Y-106368760D01*
X229740341Y-106514433D01*
X229740348Y-106514446D01*
X229827949Y-106645549D01*
X229827952Y-106645553D01*
X229939446Y-106757047D01*
X229939450Y-106757050D01*
X230070553Y-106844651D01*
X230070566Y-106844658D01*
X230147943Y-106876708D01*
X230216242Y-106904998D01*
X230370892Y-106935760D01*
X230370895Y-106935761D01*
X230370897Y-106935761D01*
X230528583Y-106935761D01*
X230528584Y-106935760D01*
X230683236Y-106904998D01*
X230828918Y-106844655D01*
X230960028Y-106757050D01*
X231071528Y-106645550D01*
X231159133Y-106514440D01*
X231219476Y-106368758D01*
X231250239Y-106214103D01*
X231250239Y-106056419D01*
X231250239Y-106056416D01*
X231250238Y-106056414D01*
X231219477Y-105901771D01*
X231219476Y-105901764D01*
X231198656Y-105851500D01*
X231159136Y-105756088D01*
X231159129Y-105756075D01*
X231071528Y-105624972D01*
X231071525Y-105624968D01*
X230960031Y-105513474D01*
X230960027Y-105513471D01*
X230828924Y-105425870D01*
X230828911Y-105425863D01*
X230683238Y-105365524D01*
X230683230Y-105365522D01*
X230616157Y-105352180D01*
X230554246Y-105319795D01*
X230552668Y-105318244D01*
X228864413Y-103629988D01*
X228864412Y-103629987D01*
X228864408Y-103629984D01*
X228757866Y-103558796D01*
X228639483Y-103509760D01*
X228639477Y-103509758D01*
X228513810Y-103484761D01*
X228513808Y-103484761D01*
X227954674Y-103484761D01*
X227887635Y-103465076D01*
X227885829Y-103463894D01*
X227828918Y-103425867D01*
X227828911Y-103425863D01*
X227683240Y-103365525D01*
X227683228Y-103365522D01*
X227528584Y-103334761D01*
X227528581Y-103334761D01*
X227370897Y-103334761D01*
X227370894Y-103334761D01*
X227216249Y-103365522D01*
X227216237Y-103365525D01*
X227070566Y-103425863D01*
X227070553Y-103425870D01*
X226939450Y-103513471D01*
X226939446Y-103513474D01*
X226827952Y-103624968D01*
X226827949Y-103624972D01*
X226740348Y-103756075D01*
X226740341Y-103756088D01*
X226680003Y-103901759D01*
X226680000Y-103901771D01*
X226649239Y-104056414D01*
X222399239Y-104056414D01*
X222399239Y-103657069D01*
X222418924Y-103590030D01*
X222435558Y-103569388D01*
X224455012Y-101549934D01*
X224455016Y-101549930D01*
X224526204Y-101443388D01*
X224575240Y-101325005D01*
X224600238Y-101199330D01*
X224600238Y-101071192D01*
X224575240Y-100945517D01*
X224526204Y-100827134D01*
X224455016Y-100720592D01*
X224455014Y-100720590D01*
X224455012Y-100720587D01*
X224360089Y-100625664D01*
X224360066Y-100625643D01*
X223684413Y-99949988D01*
X223684412Y-99949987D01*
X223684408Y-99949984D01*
X223577866Y-99878796D01*
X223459483Y-99829760D01*
X223459477Y-99829758D01*
X223333810Y-99804761D01*
X223333808Y-99804761D01*
X221197135Y-99804761D01*
X221130096Y-99785076D01*
X221084341Y-99732272D01*
X221074397Y-99663114D01*
X221094033Y-99611870D01*
X221159129Y-99514446D01*
X221159129Y-99514445D01*
X221159133Y-99514440D01*
X221219476Y-99368758D01*
X221250239Y-99214103D01*
X221250239Y-99056419D01*
X221250239Y-99056416D01*
X221250238Y-99056414D01*
X221219477Y-98901771D01*
X221219476Y-98901764D01*
X221219474Y-98901759D01*
X221159136Y-98756088D01*
X221156260Y-98750707D01*
X221158061Y-98749744D01*
X221139973Y-98691971D01*
X221158460Y-98624591D01*
X221210440Y-98577902D01*
X221263953Y-98565761D01*
X230733810Y-98565761D01*
X230818354Y-98548943D01*
X230859483Y-98540762D01*
X230977866Y-98491726D01*
X231055122Y-98440104D01*
X231099820Y-98421589D01*
X231183236Y-98404998D01*
X231328918Y-98344655D01*
X231460028Y-98257050D01*
X231571528Y-98145550D01*
X231659133Y-98014440D01*
X231719476Y-97868758D01*
X231750239Y-97714103D01*
X231750239Y-97556419D01*
X231750239Y-97556416D01*
X231750238Y-97556414D01*
X231742032Y-97515162D01*
X231719476Y-97401764D01*
X231662728Y-97264761D01*
X231659136Y-97256088D01*
X231659129Y-97256075D01*
X231571528Y-97124972D01*
X231571525Y-97124968D01*
X231460031Y-97013474D01*
X231460027Y-97013471D01*
X231328924Y-96925870D01*
X231328911Y-96925863D01*
X231183240Y-96865525D01*
X231183228Y-96865522D01*
X231028584Y-96834761D01*
X231028581Y-96834761D01*
X230870897Y-96834761D01*
X230870894Y-96834761D01*
X230716249Y-96865522D01*
X230716237Y-96865525D01*
X230570566Y-96925863D01*
X230570553Y-96925870D01*
X230439450Y-97013471D01*
X230439446Y-97013474D01*
X230327952Y-97124968D01*
X230327949Y-97124972D01*
X230271368Y-97209652D01*
X230217756Y-97254457D01*
X230168266Y-97264761D01*
X212709357Y-97264761D01*
X212642318Y-97245076D01*
X212608639Y-97210669D01*
X212607654Y-97211386D01*
X212479848Y-97035474D01*
X212329525Y-96885151D01*
X212157559Y-96760212D01*
X212149339Y-96756024D01*
X212148793Y-96755746D01*
X212097998Y-96707773D01*
X212081202Y-96639953D01*
X212103738Y-96573817D01*
X212148793Y-96534776D01*
X212157555Y-96530312D01*
X212179528Y-96514347D01*
X212329525Y-96405370D01*
X212329527Y-96405367D01*
X212329531Y-96405365D01*
X212479843Y-96255053D01*
X212479845Y-96255049D01*
X212479848Y-96255047D01*
X212604787Y-96083081D01*
X212604786Y-96083081D01*
X212604790Y-96083077D01*
X212701296Y-95893673D01*
X212766985Y-95691504D01*
X212800239Y-95481548D01*
X212800239Y-95268974D01*
X212766985Y-95059018D01*
X212723296Y-94924557D01*
X212721301Y-94854716D01*
X212757382Y-94794883D01*
X212793775Y-94771678D01*
X212801981Y-94768278D01*
X212815386Y-94762726D01*
X212921928Y-94691538D01*
X213290386Y-94323080D01*
X213351709Y-94289595D01*
X213378067Y-94286761D01*
X214743134Y-94286761D01*
X214761218Y-94292071D01*
X214780063Y-94292388D01*
X214808489Y-94305951D01*
X214810173Y-94306446D01*
X214811917Y-94307587D01*
X214812551Y-94308010D01*
X214812638Y-94308114D01*
X214812659Y-94308083D01*
X214837561Y-94324722D01*
X214837566Y-94324725D01*
X214837569Y-94324727D01*
X214955952Y-94373763D01*
X214955956Y-94373763D01*
X214955957Y-94373764D01*
X215081624Y-94398762D01*
X215081627Y-94398762D01*
X215649472Y-94398762D01*
X215649476Y-94398761D01*
X216039851Y-94398761D01*
X216539848Y-94398761D01*
X216606887Y-94418446D01*
X216652642Y-94471250D01*
X216662586Y-94540408D01*
X216661465Y-94546952D01*
X216649239Y-94608414D01*
X216649239Y-94766107D01*
X216680000Y-94920750D01*
X216680003Y-94920762D01*
X216740341Y-95066433D01*
X216740348Y-95066446D01*
X216827949Y-95197549D01*
X216827952Y-95197553D01*
X216939446Y-95309047D01*
X216939450Y-95309050D01*
X217070553Y-95396651D01*
X217070566Y-95396658D01*
X217157969Y-95432860D01*
X217216242Y-95456998D01*
X217283319Y-95470340D01*
X217345229Y-95502724D01*
X217346808Y-95504276D01*
X218219727Y-96377195D01*
X218236436Y-96399724D01*
X218236960Y-96399375D01*
X218327949Y-96535549D01*
X218327952Y-96535553D01*
X218439446Y-96647047D01*
X218439450Y-96647050D01*
X218570553Y-96734651D01*
X218570566Y-96734658D01*
X218633291Y-96760639D01*
X218716242Y-96794998D01*
X218870892Y-96825760D01*
X218870895Y-96825761D01*
X218870897Y-96825761D01*
X219028583Y-96825761D01*
X219028584Y-96825760D01*
X219183236Y-96794998D01*
X219328918Y-96734655D01*
X219460028Y-96647050D01*
X219571528Y-96535550D01*
X219659133Y-96404440D01*
X219661087Y-96399724D01*
X219719474Y-96258762D01*
X219719476Y-96258758D01*
X219750239Y-96104103D01*
X219750239Y-95946419D01*
X219750239Y-95946416D01*
X219750238Y-95946414D01*
X219719477Y-95791771D01*
X219719476Y-95791764D01*
X219690371Y-95721498D01*
X219659136Y-95646088D01*
X219659129Y-95646075D01*
X219571528Y-95514972D01*
X219571525Y-95514968D01*
X219460031Y-95403474D01*
X219460027Y-95403471D01*
X219328924Y-95315870D01*
X219328911Y-95315863D01*
X219183240Y-95255525D01*
X219183231Y-95255522D01*
X219151030Y-95249117D01*
X219089119Y-95216731D01*
X219054546Y-95156014D01*
X219058287Y-95086245D01*
X219099154Y-95029574D01*
X219106317Y-95024407D01*
X219207126Y-94957050D01*
X219318626Y-94845550D01*
X219406231Y-94714440D01*
X219466574Y-94568758D01*
X219497337Y-94414103D01*
X219497337Y-94256419D01*
X219497337Y-94256416D01*
X219497336Y-94256414D01*
X219466574Y-94101764D01*
X219453090Y-94069212D01*
X219445622Y-93999745D01*
X219476897Y-93937265D01*
X219536986Y-93901613D01*
X219567652Y-93897761D01*
X233530985Y-93897761D01*
X233615529Y-93880943D01*
X233656658Y-93872762D01*
X233775041Y-93823726D01*
X233864784Y-93763762D01*
X233881582Y-93752538D01*
X234019603Y-93614517D01*
X234167995Y-93466123D01*
X234168000Y-93466120D01*
X234175060Y-93459059D01*
X234175063Y-93459058D01*
X235522045Y-92112072D01*
X235522050Y-92112069D01*
X235532253Y-92101865D01*
X235532255Y-92101865D01*
X235916342Y-91717778D01*
X235916343Y-91717777D01*
X250812040Y-76822080D01*
X250873363Y-76788595D01*
X250899721Y-76785761D01*
X253944804Y-76785761D01*
X254011843Y-76805446D01*
X254013648Y-76806627D01*
X254070560Y-76844655D01*
X254070562Y-76844656D01*
X254070566Y-76844658D01*
X254216237Y-76904996D01*
X254216242Y-76904998D01*
X254370892Y-76935760D01*
X254370895Y-76935761D01*
X254370897Y-76935761D01*
X254528583Y-76935761D01*
X254528584Y-76935760D01*
X254683236Y-76904998D01*
X254828918Y-76844655D01*
X254960028Y-76757050D01*
X255071528Y-76645550D01*
X255159133Y-76514440D01*
X255219476Y-76368758D01*
X255246168Y-76234570D01*
X255278553Y-76172659D01*
X255339268Y-76138085D01*
X255367785Y-76134761D01*
X255977931Y-76134761D01*
X256007371Y-76143405D01*
X256037358Y-76149929D01*
X256042373Y-76153683D01*
X256044970Y-76154446D01*
X256065612Y-76171080D01*
X256132723Y-76238191D01*
X256166208Y-76299514D01*
X256166659Y-76301681D01*
X256180000Y-76368750D01*
X256180003Y-76368762D01*
X256240341Y-76514433D01*
X256240348Y-76514446D01*
X256327949Y-76645549D01*
X256327952Y-76645553D01*
X256439446Y-76757047D01*
X256439450Y-76757050D01*
X256570553Y-76844651D01*
X256570566Y-76844658D01*
X256716237Y-76904996D01*
X256716242Y-76904998D01*
X256870892Y-76935760D01*
X256870895Y-76935761D01*
X256870897Y-76935761D01*
X257028583Y-76935761D01*
X257028584Y-76935760D01*
X257183236Y-76904998D01*
X257328918Y-76844655D01*
X257460028Y-76757050D01*
X257571528Y-76645550D01*
X257659133Y-76514440D01*
X257719476Y-76368758D01*
X257750239Y-76214103D01*
X257750239Y-76056419D01*
X257750239Y-76056416D01*
X257750238Y-76056414D01*
X257729694Y-75953133D01*
X257719476Y-75901764D01*
X257719474Y-75901759D01*
X257659136Y-75756088D01*
X257659129Y-75756075D01*
X257571528Y-75624972D01*
X257571525Y-75624968D01*
X257460031Y-75513474D01*
X257460027Y-75513471D01*
X257328924Y-75425870D01*
X257328911Y-75425863D01*
X257183240Y-75365525D01*
X257183228Y-75365522D01*
X257116159Y-75352181D01*
X257054248Y-75319796D01*
X257052669Y-75318245D01*
X256713413Y-74978988D01*
X256713412Y-74978987D01*
X256713408Y-74978984D01*
X256606866Y-74907796D01*
X256488483Y-74858760D01*
X256488477Y-74858758D01*
X256362810Y-74833761D01*
X256362808Y-74833761D01*
X250457324Y-74833761D01*
X250457322Y-74833761D01*
X250331654Y-74858758D01*
X250331648Y-74858760D01*
X250213263Y-74907796D01*
X250106724Y-74978983D01*
X250106717Y-74978989D01*
X237311920Y-87773787D01*
X237250597Y-87807272D01*
X237180905Y-87802288D01*
X237124972Y-87760416D01*
X237100555Y-87694952D01*
X237100239Y-87686106D01*
X237100239Y-80456067D01*
X237119924Y-80389028D01*
X237136553Y-80368391D01*
X243052669Y-74452274D01*
X243113990Y-74418791D01*
X243116014Y-74418369D01*
X243183236Y-74404998D01*
X243328918Y-74344655D01*
X243460028Y-74257050D01*
X243571528Y-74145550D01*
X243659133Y-74014440D01*
X243719476Y-73868758D01*
X243750239Y-73714103D01*
X243750239Y-73556419D01*
X243750239Y-73556416D01*
X243750238Y-73556414D01*
X243739734Y-73503608D01*
X243719476Y-73401764D01*
X243690873Y-73332710D01*
X243659136Y-73256088D01*
X243659129Y-73256075D01*
X243571528Y-73124972D01*
X243571525Y-73124968D01*
X243490209Y-73043652D01*
X243456724Y-72982329D01*
X243461708Y-72912637D01*
X243490209Y-72868290D01*
X243786420Y-72572080D01*
X243847743Y-72538595D01*
X243874101Y-72535761D01*
X251038432Y-72535761D01*
X251038433Y-72535760D01*
X251096421Y-72524225D01*
X251212397Y-72501157D01*
X251212400Y-72501155D01*
X251212405Y-72501155D01*
X251376286Y-72433274D01*
X251523774Y-72334725D01*
X251649203Y-72209296D01*
X251747752Y-72061808D01*
X251815633Y-71897927D01*
X251815693Y-71897628D01*
X251850238Y-71723956D01*
X251850239Y-71723954D01*
X251850239Y-71546567D01*
X251850238Y-71546565D01*
X251815635Y-71372602D01*
X251815632Y-71372593D01*
X251747755Y-71208720D01*
X251747748Y-71208707D01*
X251649203Y-71061226D01*
X251649200Y-71061222D01*
X251523777Y-70935799D01*
X251523773Y-70935796D01*
X251376292Y-70837251D01*
X251376279Y-70837244D01*
X251212406Y-70769367D01*
X251212397Y-70769364D01*
X251038433Y-70734761D01*
X251038430Y-70734761D01*
X243538431Y-70734761D01*
X243361047Y-70734761D01*
X243361042Y-70734761D01*
X243187080Y-70769364D01*
X243187072Y-70769366D01*
X243023194Y-70837246D01*
X243023185Y-70837251D01*
X242875703Y-70935796D01*
X242875699Y-70935799D01*
X235719242Y-78092256D01*
X235719236Y-78092263D01*
X235685921Y-78142124D01*
X235685916Y-78142132D01*
X235683491Y-78145762D01*
X235620689Y-78239751D01*
X235598531Y-78293246D01*
X235595540Y-78300465D01*
X235595538Y-78300470D01*
X235550909Y-78408214D01*
X235507067Y-78462618D01*
X235440773Y-78484682D01*
X235436348Y-78484761D01*
X218954674Y-78484761D01*
X218887635Y-78465076D01*
X218885829Y-78463894D01*
X218828918Y-78425867D01*
X218828911Y-78425863D01*
X218683240Y-78365525D01*
X218683228Y-78365522D01*
X218528584Y-78334761D01*
X218528581Y-78334761D01*
X218527239Y-78334761D01*
X218526560Y-78334561D01*
X218522521Y-78334164D01*
X218522596Y-78333397D01*
X218460200Y-78315076D01*
X218414445Y-78262272D01*
X218403239Y-78210761D01*
X218403239Y-77801535D01*
X218378241Y-77675868D01*
X218378240Y-77675867D01*
X218378240Y-77675863D01*
X218329204Y-77557480D01*
X218297319Y-77509760D01*
X218297319Y-77509759D01*
X218258014Y-77450935D01*
X218136558Y-77329479D01*
X218103073Y-77268156D01*
X218100239Y-77241798D01*
X218100239Y-73571189D01*
X218075241Y-73445522D01*
X218075240Y-73445521D01*
X218075240Y-73445517D01*
X218026204Y-73327134D01*
X218018815Y-73316076D01*
X218005663Y-73296391D01*
X217955014Y-73220589D01*
X217705412Y-72970987D01*
X217705408Y-72970984D01*
X217598866Y-72899796D01*
X217480483Y-72850760D01*
X217480477Y-72850758D01*
X217354810Y-72825761D01*
X217354808Y-72825761D01*
X215874239Y-72825761D01*
X215807200Y-72806076D01*
X215761445Y-72753272D01*
X215750239Y-72701761D01*
X215750239Y-72556416D01*
X215750238Y-72556414D01*
X215746130Y-72535760D01*
X215719476Y-72401764D01*
X215691707Y-72334722D01*
X215659136Y-72256088D01*
X215659129Y-72256075D01*
X215571528Y-72124972D01*
X215571525Y-72124968D01*
X215460031Y-72013474D01*
X215460027Y-72013471D01*
X215328924Y-71925870D01*
X215328911Y-71925863D01*
X215183240Y-71865525D01*
X215183228Y-71865522D01*
X215028584Y-71834761D01*
X215028581Y-71834761D01*
X214870897Y-71834761D01*
X214870894Y-71834761D01*
X214716249Y-71865522D01*
X214716237Y-71865525D01*
X214570566Y-71925863D01*
X214570554Y-71925870D01*
X214497786Y-71974493D01*
X214431109Y-71995371D01*
X214428895Y-71995391D01*
X212508155Y-71995391D01*
X212441116Y-71975706D01*
X212395361Y-71922902D01*
X212386538Y-71895582D01*
X212359847Y-71761401D01*
X212359846Y-71761394D01*
X212344337Y-71723952D01*
X212299506Y-71615718D01*
X212299499Y-71615705D01*
X212211898Y-71484602D01*
X212211895Y-71484598D01*
X212100401Y-71373104D01*
X212100397Y-71373101D01*
X211969294Y-71285500D01*
X211969281Y-71285493D01*
X211823610Y-71225155D01*
X211823598Y-71225152D01*
X211756529Y-71211811D01*
X211694618Y-71179426D01*
X211693037Y-71177873D01*
X211674022Y-71158857D01*
X211674018Y-71158854D01*
X211567476Y-71087666D01*
X211503644Y-71061226D01*
X211449093Y-71038630D01*
X211449087Y-71038628D01*
X211323420Y-71013631D01*
X211323418Y-71013631D01*
X209925804Y-71013631D01*
X209858765Y-70993946D01*
X209856959Y-70992764D01*
X209800048Y-70954737D01*
X209800041Y-70954733D01*
X209654370Y-70894395D01*
X209654358Y-70894392D01*
X209499714Y-70863631D01*
X209499711Y-70863631D01*
X209342027Y-70863631D01*
X209342024Y-70863631D01*
X209187379Y-70894392D01*
X209187367Y-70894395D01*
X209041696Y-70954733D01*
X209041683Y-70954740D01*
X208910580Y-71042341D01*
X208910576Y-71042344D01*
X208799082Y-71153838D01*
X208799079Y-71153842D01*
X208711478Y-71284945D01*
X208711471Y-71284958D01*
X208651133Y-71430629D01*
X208651130Y-71430641D01*
X208620369Y-71585284D01*
X208620369Y-71585289D01*
X208620369Y-71742973D01*
X208620369Y-71742975D01*
X208620368Y-71742975D01*
X208641101Y-71847199D01*
X208634874Y-71916791D01*
X208592011Y-71971968D01*
X208526122Y-71995213D01*
X208519484Y-71995391D01*
X208375038Y-71995391D01*
X208249370Y-72020388D01*
X208249364Y-72020390D01*
X208130979Y-72069426D01*
X208024440Y-72140613D01*
X208024433Y-72140619D01*
X204444463Y-75720589D01*
X204379515Y-75817790D01*
X204379516Y-75817791D01*
X204373274Y-75827133D01*
X204324238Y-75945516D01*
X204324236Y-75945522D01*
X204299239Y-76071189D01*
X204299239Y-91630325D01*
X204279554Y-91697364D01*
X204278342Y-91699215D01*
X204240347Y-91756078D01*
X204240341Y-91756089D01*
X204180003Y-91901759D01*
X204180000Y-91901771D01*
X204149239Y-92056414D01*
X204149239Y-92214107D01*
X204180000Y-92368750D01*
X204180003Y-92368762D01*
X204240341Y-92514433D01*
X204240348Y-92514446D01*
X204327949Y-92645549D01*
X204327952Y-92645553D01*
X204439446Y-92757047D01*
X204439450Y-92757050D01*
X204570553Y-92844651D01*
X204570566Y-92844658D01*
X204716237Y-92904996D01*
X204716242Y-92904998D01*
X204870892Y-92935760D01*
X204870895Y-92935761D01*
X204870897Y-92935761D01*
X205028583Y-92935761D01*
X205028584Y-92935760D01*
X205183236Y-92904998D01*
X205328918Y-92844655D01*
X205460028Y-92757050D01*
X205571528Y-92645550D01*
X205573135Y-92643145D01*
X205574303Y-92642168D01*
X205575392Y-92640842D01*
X205575643Y-92641048D01*
X205626746Y-92598339D01*
X205696071Y-92589629D01*
X205759099Y-92619782D01*
X205795820Y-92679224D01*
X205800239Y-92712033D01*
X205800239Y-96960760D01*
X205780554Y-97027799D01*
X205763920Y-97048441D01*
X202793466Y-100018894D01*
X202793465Y-100018895D01*
X202722273Y-100125443D01*
X202673238Y-100243824D01*
X202673236Y-100243830D01*
X202648239Y-100369497D01*
X202250500Y-100369497D01*
X202250500Y-70462838D01*
X211024714Y-70462838D01*
X211129975Y-70506439D01*
X211129979Y-70506440D01*
X211274865Y-70535260D01*
X211274868Y-70535261D01*
X211422610Y-70535261D01*
X211422612Y-70535260D01*
X211567499Y-70506440D01*
X211567514Y-70506436D01*
X211672763Y-70462839D01*
X211672763Y-70462838D01*
X212524714Y-70462838D01*
X212629975Y-70506439D01*
X212629979Y-70506440D01*
X212774865Y-70535260D01*
X212774868Y-70535261D01*
X212922610Y-70535261D01*
X212922612Y-70535260D01*
X213067499Y-70506440D01*
X213067514Y-70506436D01*
X213172763Y-70462839D01*
X213172763Y-70462838D01*
X212848740Y-70138815D01*
X212848739Y-70138815D01*
X212524714Y-70462838D01*
X211672763Y-70462838D01*
X211348740Y-70138815D01*
X211348739Y-70138815D01*
X211024714Y-70462838D01*
X202250500Y-70462838D01*
X202250500Y-69711387D01*
X210598739Y-69711387D01*
X210598739Y-69859134D01*
X210627559Y-70004020D01*
X210627561Y-70004028D01*
X210671160Y-70109285D01*
X210995185Y-69785261D01*
X210995185Y-69785260D01*
X210975295Y-69765370D01*
X211248739Y-69765370D01*
X211248739Y-69805152D01*
X211263963Y-69841906D01*
X211292094Y-69870037D01*
X211328848Y-69885261D01*
X211368630Y-69885261D01*
X211405384Y-69870037D01*
X211433515Y-69841906D01*
X211448739Y-69805152D01*
X211448739Y-69785260D01*
X211702293Y-69785260D01*
X211702293Y-69785262D01*
X212026315Y-70109284D01*
X212074546Y-70099691D01*
X212122930Y-70099691D01*
X212171161Y-70109285D01*
X212495185Y-69785261D01*
X212495185Y-69785260D01*
X212475295Y-69765370D01*
X212748739Y-69765370D01*
X212748739Y-69805152D01*
X212763963Y-69841906D01*
X212792094Y-69870037D01*
X212828848Y-69885261D01*
X212868630Y-69885261D01*
X212905384Y-69870037D01*
X212933515Y-69841906D01*
X212948739Y-69805152D01*
X212948739Y-69785260D01*
X213202293Y-69785260D01*
X213202293Y-69785262D01*
X213526316Y-70109285D01*
X213526317Y-70109285D01*
X213569914Y-70004036D01*
X213569918Y-70004021D01*
X213598738Y-69859134D01*
X213598739Y-69859132D01*
X213598739Y-69711389D01*
X213598738Y-69711387D01*
X213569918Y-69566501D01*
X213569917Y-69566497D01*
X213526316Y-69461236D01*
X213202293Y-69785260D01*
X212948739Y-69785260D01*
X212948739Y-69765370D01*
X212933515Y-69728616D01*
X212905384Y-69700485D01*
X212868630Y-69685261D01*
X212828848Y-69685261D01*
X212792094Y-69700485D01*
X212763963Y-69728616D01*
X212748739Y-69765370D01*
X212475295Y-69765370D01*
X212171160Y-69461235D01*
X212122929Y-69470829D01*
X212074547Y-69470829D01*
X212026316Y-69461235D01*
X211702293Y-69785260D01*
X211448739Y-69785260D01*
X211448739Y-69765370D01*
X211433515Y-69728616D01*
X211405384Y-69700485D01*
X211368630Y-69685261D01*
X211328848Y-69685261D01*
X211292094Y-69700485D01*
X211263963Y-69728616D01*
X211248739Y-69765370D01*
X210975295Y-69765370D01*
X210671160Y-69461235D01*
X210671159Y-69461235D01*
X210627562Y-69566489D01*
X210627559Y-69566501D01*
X210598739Y-69711387D01*
X202250500Y-69711387D01*
X202250500Y-68962838D01*
X211024713Y-68962838D01*
X211034307Y-69011069D01*
X211034307Y-69059451D01*
X211024713Y-69107682D01*
X211348739Y-69431707D01*
X211348740Y-69431707D01*
X211672763Y-69107683D01*
X211663169Y-69059452D01*
X211663169Y-69051114D01*
X211661279Y-69046311D01*
X211663169Y-69011068D01*
X211672762Y-68962838D01*
X212524713Y-68962838D01*
X212534307Y-69011069D01*
X212534307Y-69059451D01*
X212524713Y-69107682D01*
X212848739Y-69431707D01*
X212848740Y-69431707D01*
X213172763Y-69107683D01*
X213163169Y-69059452D01*
X213163169Y-69011068D01*
X213172762Y-68962837D01*
X212848740Y-68638815D01*
X212848739Y-68638815D01*
X212524713Y-68962838D01*
X211672762Y-68962838D01*
X211672762Y-68962837D01*
X211348740Y-68638815D01*
X211348739Y-68638815D01*
X211024713Y-68962838D01*
X202250500Y-68962838D01*
X202250500Y-67881414D01*
X207394718Y-67881414D01*
X207394718Y-68039107D01*
X207425479Y-68193750D01*
X207425482Y-68193762D01*
X207485820Y-68339433D01*
X207485827Y-68339446D01*
X207573428Y-68470549D01*
X207573431Y-68470553D01*
X207684925Y-68582047D01*
X207684929Y-68582050D01*
X207816032Y-68669651D01*
X207816045Y-68669658D01*
X207961716Y-68729996D01*
X207961721Y-68729998D01*
X208116371Y-68760760D01*
X208116374Y-68760761D01*
X208116376Y-68760761D01*
X208274062Y-68760761D01*
X208274063Y-68760760D01*
X208428715Y-68729998D01*
X208574397Y-68669655D01*
X208705507Y-68582050D01*
X208817007Y-68470550D01*
X208904612Y-68339440D01*
X208957653Y-68211387D01*
X210598739Y-68211387D01*
X210598739Y-68359134D01*
X210627559Y-68504020D01*
X210627561Y-68504028D01*
X210671160Y-68609285D01*
X210995185Y-68285261D01*
X210995185Y-68285260D01*
X210975295Y-68265370D01*
X211248739Y-68265370D01*
X211248739Y-68305152D01*
X211263963Y-68341906D01*
X211292094Y-68370037D01*
X211328848Y-68385261D01*
X211368630Y-68385261D01*
X211405384Y-68370037D01*
X211433515Y-68341906D01*
X211448739Y-68305152D01*
X211448739Y-68285260D01*
X211702293Y-68285260D01*
X211702293Y-68285262D01*
X212026315Y-68609284D01*
X212074546Y-68599691D01*
X212122930Y-68599691D01*
X212171161Y-68609285D01*
X212495185Y-68285261D01*
X212495185Y-68285260D01*
X212475295Y-68265370D01*
X212748739Y-68265370D01*
X212748739Y-68305152D01*
X212763963Y-68341906D01*
X212792094Y-68370037D01*
X212828848Y-68385261D01*
X212868630Y-68385261D01*
X212905384Y-68370037D01*
X212933515Y-68341906D01*
X212948739Y-68305152D01*
X212948739Y-68285260D01*
X213202293Y-68285260D01*
X213202293Y-68285262D01*
X213526316Y-68609285D01*
X213526317Y-68609285D01*
X213569914Y-68504036D01*
X213569918Y-68504021D01*
X213598738Y-68359134D01*
X213598739Y-68359132D01*
X213598739Y-68211389D01*
X213598738Y-68211387D01*
X213569918Y-68066501D01*
X213569917Y-68066497D01*
X213526316Y-67961236D01*
X213202293Y-68285260D01*
X212948739Y-68285260D01*
X212948739Y-68265370D01*
X212933515Y-68228616D01*
X212905384Y-68200485D01*
X212868630Y-68185261D01*
X212828848Y-68185261D01*
X212792094Y-68200485D01*
X212763963Y-68228616D01*
X212748739Y-68265370D01*
X212475295Y-68265370D01*
X212171160Y-67961235D01*
X212122929Y-67970829D01*
X212074547Y-67970829D01*
X212026316Y-67961235D01*
X211702293Y-68285260D01*
X211448739Y-68285260D01*
X211448739Y-68265370D01*
X211433515Y-68228616D01*
X211405384Y-68200485D01*
X211368630Y-68185261D01*
X211328848Y-68185261D01*
X211292094Y-68200485D01*
X211263963Y-68228616D01*
X211248739Y-68265370D01*
X210975295Y-68265370D01*
X210671160Y-67961235D01*
X210671159Y-67961235D01*
X210627562Y-68066489D01*
X210627559Y-68066501D01*
X210598739Y-68211387D01*
X208957653Y-68211387D01*
X208964955Y-68193758D01*
X208978297Y-68126677D01*
X209010681Y-68064770D01*
X209012176Y-68063247D01*
X209612585Y-67462838D01*
X211024713Y-67462838D01*
X211034307Y-67511069D01*
X211034307Y-67559451D01*
X211024713Y-67607682D01*
X211348739Y-67931707D01*
X211348740Y-67931707D01*
X211672763Y-67607683D01*
X211663169Y-67559452D01*
X211663169Y-67551114D01*
X211661279Y-67546311D01*
X211663169Y-67511068D01*
X211672762Y-67462838D01*
X212524713Y-67462838D01*
X212534307Y-67511069D01*
X212534307Y-67559451D01*
X212524713Y-67607682D01*
X212848739Y-67931707D01*
X212848740Y-67931707D01*
X213172763Y-67607683D01*
X213163169Y-67559452D01*
X213163169Y-67511068D01*
X213172762Y-67462837D01*
X212848740Y-67138815D01*
X212848739Y-67138815D01*
X212524713Y-67462838D01*
X211672762Y-67462838D01*
X211672762Y-67462837D01*
X211348740Y-67138815D01*
X211348739Y-67138815D01*
X211024713Y-67462838D01*
X209612585Y-67462838D01*
X210387059Y-66688365D01*
X210448381Y-66654881D01*
X210518073Y-66659865D01*
X210574006Y-66701737D01*
X210598423Y-66767201D01*
X210598739Y-66776047D01*
X210598739Y-66859134D01*
X210627559Y-67004020D01*
X210627561Y-67004028D01*
X210671160Y-67109285D01*
X211084281Y-66696165D01*
X211145604Y-66662680D01*
X211215296Y-66667664D01*
X211259643Y-66696165D01*
X211278028Y-66714550D01*
X211263963Y-66728616D01*
X211248739Y-66765370D01*
X211248739Y-66805152D01*
X211263963Y-66841906D01*
X211292094Y-66870037D01*
X211328848Y-66885261D01*
X211368630Y-66885261D01*
X211405384Y-66870037D01*
X211433515Y-66841906D01*
X211448739Y-66805152D01*
X211448739Y-66765370D01*
X211433515Y-66728616D01*
X211419448Y-66714549D01*
X211437833Y-66696165D01*
X211499156Y-66662680D01*
X211568848Y-66667664D01*
X211613196Y-66696165D01*
X212026315Y-67109284D01*
X212074546Y-67099691D01*
X212122930Y-67099691D01*
X212171160Y-67109285D01*
X212584281Y-66696165D01*
X212645604Y-66662680D01*
X212715296Y-66667664D01*
X212759643Y-66696165D01*
X212778028Y-66714550D01*
X212763963Y-66728616D01*
X212748739Y-66765370D01*
X212748739Y-66805152D01*
X212763963Y-66841906D01*
X212792094Y-66870037D01*
X212828848Y-66885261D01*
X212868630Y-66885261D01*
X212905384Y-66870037D01*
X212933515Y-66841906D01*
X212948739Y-66805152D01*
X212948739Y-66765370D01*
X212933515Y-66728616D01*
X212919448Y-66714549D01*
X212937833Y-66696165D01*
X212999156Y-66662680D01*
X213068848Y-66667664D01*
X213113196Y-66696165D01*
X213526316Y-67109285D01*
X213526317Y-67109285D01*
X213569914Y-67004036D01*
X213569918Y-67004021D01*
X213598738Y-66859134D01*
X213598739Y-66859132D01*
X213598739Y-66711389D01*
X213598738Y-66711387D01*
X213569918Y-66566501D01*
X213569916Y-66566493D01*
X213524651Y-66457214D01*
X213517182Y-66387745D01*
X213548457Y-66325266D01*
X213608546Y-66289613D01*
X213639212Y-66285761D01*
X239013810Y-66285761D01*
X239098354Y-66268943D01*
X239139483Y-66260762D01*
X239257866Y-66211726D01*
X239364408Y-66140538D01*
X244967688Y-60537256D01*
X245029011Y-60503772D01*
X245055369Y-60500938D01*
X245652610Y-60500938D01*
X245652611Y-60500938D01*
X245712222Y-60494530D01*
X245712225Y-60494528D01*
X245719293Y-60493769D01*
X245788053Y-60506175D01*
X245820229Y-60529378D01*
X245912084Y-60621233D01*
X245912089Y-60621237D01*
X245941474Y-60642586D01*
X246115894Y-60769309D01*
X246258923Y-60842186D01*
X246340355Y-60883678D01*
X246340357Y-60883678D01*
X246340360Y-60883680D01*
X246579954Y-60961529D01*
X246828777Y-61000939D01*
X246828778Y-61000939D01*
X247080700Y-61000939D01*
X247080701Y-61000939D01*
X247329524Y-60961529D01*
X247569118Y-60883680D01*
X247793584Y-60769309D01*
X247997395Y-60621232D01*
X248175532Y-60443095D01*
X248323609Y-60239284D01*
X248437980Y-60014818D01*
X248515829Y-59775224D01*
X248555239Y-59526401D01*
X248555239Y-58663828D01*
X252979239Y-58663828D01*
X252979239Y-58837050D01*
X253006337Y-59008140D01*
X253059866Y-59172884D01*
X253138507Y-59327227D01*
X253240325Y-59467367D01*
X253240327Y-59467369D01*
X253347866Y-59574908D01*
X253381351Y-59636231D01*
X253376367Y-59705923D01*
X253334495Y-59761856D01*
X253325283Y-59768127D01*
X253261083Y-59807726D01*
X253137028Y-59931781D01*
X253044926Y-60081102D01*
X253044925Y-60081105D01*
X252989740Y-60247642D01*
X252989740Y-60247643D01*
X252989739Y-60247643D01*
X252979239Y-60350422D01*
X252979239Y-61150440D01*
X252979240Y-61150458D01*
X252989739Y-61253235D01*
X252989740Y-61253238D01*
X253044924Y-61419770D01*
X253044925Y-61419773D01*
X253137027Y-61569095D01*
X253261083Y-61693151D01*
X253410405Y-61785253D01*
X253576942Y-61840438D01*
X253679730Y-61850939D01*
X255029747Y-61850938D01*
X255132536Y-61840438D01*
X255299073Y-61785253D01*
X255448395Y-61693151D01*
X255572451Y-61569095D01*
X255664553Y-61419773D01*
X255719738Y-61253236D01*
X255730239Y-61150448D01*
X255730238Y-60350431D01*
X255726416Y-60313020D01*
X255719738Y-60247642D01*
X255719737Y-60247639D01*
X255672999Y-60106594D01*
X255664553Y-60081105D01*
X255572451Y-59931783D01*
X255448395Y-59807727D01*
X255448391Y-59807724D01*
X255384195Y-59768127D01*
X255337470Y-59716179D01*
X255326249Y-59647216D01*
X255354092Y-59583134D01*
X255361589Y-59574930D01*
X255469153Y-59467367D01*
X255570971Y-59327227D01*
X255649612Y-59172884D01*
X255703141Y-59008140D01*
X255730239Y-58837050D01*
X255730239Y-58663828D01*
X255703141Y-58492738D01*
X255649612Y-58327994D01*
X255570971Y-58173651D01*
X255469153Y-58033511D01*
X255346667Y-57911025D01*
X255206527Y-57809207D01*
X255052184Y-57730566D01*
X254887440Y-57677037D01*
X254887438Y-57677036D01*
X254887437Y-57677036D01*
X254756010Y-57656220D01*
X254716350Y-57649939D01*
X253993128Y-57649939D01*
X253953467Y-57656220D01*
X253822041Y-57677036D01*
X253822038Y-57677037D01*
X253672412Y-57725654D01*
X253657291Y-57730567D01*
X253502950Y-57809207D01*
X253422995Y-57867298D01*
X253362811Y-57911025D01*
X253362809Y-57911027D01*
X253362808Y-57911027D01*
X253240327Y-58033508D01*
X253240327Y-58033509D01*
X253240325Y-58033511D01*
X253196598Y-58093695D01*
X253138507Y-58173650D01*
X253059867Y-58327991D01*
X253006336Y-58492741D01*
X252979239Y-58663828D01*
X248555239Y-58663828D01*
X248555239Y-57974477D01*
X248515829Y-57725654D01*
X248437980Y-57486060D01*
X248437978Y-57486057D01*
X248437978Y-57486055D01*
X248391218Y-57394284D01*
X248323609Y-57261594D01*
X248275725Y-57195687D01*
X248175537Y-57057789D01*
X248175533Y-57057784D01*
X247997393Y-56879644D01*
X247997388Y-56879640D01*
X247793587Y-56731571D01*
X247793586Y-56731570D01*
X247793584Y-56731569D01*
X247723486Y-56695852D01*
X247569122Y-56617199D01*
X247329524Y-56539349D01*
X247080701Y-56499939D01*
X246828777Y-56499939D01*
X246704365Y-56519644D01*
X246579953Y-56539349D01*
X246340355Y-56617199D01*
X246115890Y-56731571D01*
X245912089Y-56879639D01*
X245820226Y-56971501D01*
X245758902Y-57004985D01*
X245719292Y-57007108D01*
X245710261Y-57006137D01*
X245652612Y-56999939D01*
X245652604Y-56999939D01*
X244056868Y-56999939D01*
X244056862Y-56999940D01*
X243997255Y-57006347D01*
X243862410Y-57056641D01*
X243862403Y-57056645D01*
X243747194Y-57142891D01*
X243718504Y-57181216D01*
X243662569Y-57223087D01*
X243592878Y-57228070D01*
X243546352Y-57207222D01*
X243510144Y-57180915D01*
X243334768Y-57091556D01*
X243147565Y-57030729D01*
X242953161Y-56999939D01*
X242953156Y-56999939D01*
X242756322Y-56999939D01*
X242756317Y-56999939D01*
X242561912Y-57030729D01*
X242374709Y-57091556D01*
X242199333Y-57180915D01*
X242134431Y-57228070D01*
X242040093Y-57296611D01*
X242040091Y-57296613D01*
X242040090Y-57296613D01*
X241942420Y-57394284D01*
X241881097Y-57427769D01*
X241811405Y-57422785D01*
X241767058Y-57394284D01*
X241669387Y-57296613D01*
X241669385Y-57296611D01*
X241510144Y-57180915D01*
X241487564Y-57169410D01*
X241334768Y-57091556D01*
X241147565Y-57030729D01*
X240953161Y-56999939D01*
X240953156Y-56999939D01*
X240756322Y-56999939D01*
X240756317Y-56999939D01*
X240561912Y-57030729D01*
X240374706Y-57091557D01*
X240195650Y-57182791D01*
X240126981Y-57195687D01*
X240062241Y-57169410D01*
X240039038Y-57145191D01*
X239975537Y-57057788D01*
X239797393Y-56879644D01*
X239797388Y-56879640D01*
X239593587Y-56731571D01*
X239593586Y-56731570D01*
X239593584Y-56731569D01*
X239523486Y-56695852D01*
X239369122Y-56617199D01*
X239129524Y-56539349D01*
X238880701Y-56499939D01*
X238628777Y-56499939D01*
X238504365Y-56519644D01*
X238379953Y-56539349D01*
X238140355Y-56617199D01*
X237915890Y-56731571D01*
X237712089Y-56879640D01*
X237712084Y-56879644D01*
X237533944Y-57057784D01*
X237533940Y-57057789D01*
X237385871Y-57261590D01*
X237271499Y-57486055D01*
X237193649Y-57725653D01*
X237193649Y-57725654D01*
X237154239Y-57974477D01*
X237154239Y-59526401D01*
X237173374Y-59647216D01*
X237193649Y-59775224D01*
X237271499Y-60014822D01*
X237318260Y-60106594D01*
X237368025Y-60204264D01*
X237385871Y-60239287D01*
X237533940Y-60443088D01*
X237533944Y-60443093D01*
X237712084Y-60621233D01*
X237712089Y-60621237D01*
X237741474Y-60642586D01*
X237915894Y-60769309D01*
X238058923Y-60842186D01*
X238140355Y-60883678D01*
X238140357Y-60883678D01*
X238140360Y-60883680D01*
X238379954Y-60961529D01*
X238628777Y-61000939D01*
X238628778Y-61000939D01*
X238880700Y-61000939D01*
X238880701Y-61000939D01*
X239129524Y-60961529D01*
X239369118Y-60883680D01*
X239593584Y-60769309D01*
X239797395Y-60621232D01*
X239975532Y-60443095D01*
X240039037Y-60355686D01*
X240094367Y-60313020D01*
X240163980Y-60307041D01*
X240195651Y-60318086D01*
X240199332Y-60319961D01*
X240199334Y-60319963D01*
X240259108Y-60350419D01*
X240374709Y-60409321D01*
X240374711Y-60409321D01*
X240374714Y-60409323D01*
X240475056Y-60441926D01*
X240561912Y-60470148D01*
X240756317Y-60500939D01*
X240756322Y-60500939D01*
X240953161Y-60500939D01*
X241147565Y-60470148D01*
X241334764Y-60409323D01*
X241510144Y-60319963D01*
X241669385Y-60204267D01*
X241767058Y-60106594D01*
X241828381Y-60073109D01*
X241898073Y-60078093D01*
X241942420Y-60106594D01*
X242040093Y-60204267D01*
X242199334Y-60319963D01*
X242259131Y-60350431D01*
X242374709Y-60409321D01*
X242374711Y-60409321D01*
X242374714Y-60409323D01*
X242475056Y-60441926D01*
X242561912Y-60470148D01*
X242756317Y-60500939D01*
X242864752Y-60500939D01*
X242931791Y-60520624D01*
X242977546Y-60573428D01*
X242987490Y-60642586D01*
X242958465Y-60706142D01*
X242952433Y-60712620D01*
X238716612Y-64948442D01*
X238655289Y-64981927D01*
X238628931Y-64984761D01*
X210456147Y-64984761D01*
X210330479Y-65009758D01*
X210330469Y-65009761D01*
X210281438Y-65030071D01*
X210212099Y-65058791D01*
X210212081Y-65058801D01*
X210105550Y-65129982D01*
X210105543Y-65129988D01*
X208092286Y-67143245D01*
X208030963Y-67176730D01*
X208028797Y-67177181D01*
X207961726Y-67190522D01*
X207961716Y-67190525D01*
X207816045Y-67250863D01*
X207816032Y-67250870D01*
X207684929Y-67338471D01*
X207684925Y-67338474D01*
X207573431Y-67449968D01*
X207573428Y-67449972D01*
X207485827Y-67581075D01*
X207485820Y-67581088D01*
X207425482Y-67726759D01*
X207425479Y-67726771D01*
X207394718Y-67881414D01*
X202250500Y-67881414D01*
X202250500Y-51874500D01*
X202270185Y-51807461D01*
X202322989Y-51761706D01*
X202374500Y-51750500D01*
X261625500Y-51750500D01*
X261692539Y-51770185D01*
G37*
%TD.AperFunction*%
%TD*%
M02*
